<?xml version="1.0" encoding="UTF-8" standalone="no"?>
<!DOCTYPE svg PUBLIC "-//W3C//DTD SVG 1.1//EN"
 "http://www.w3.org/Graphics/SVG/1.1/DTD/svg11.dtd">
<!-- Generated by graphviz version 2.47.0 (20210316.0004)
 -->
<!-- Title: dependencies Pages: 1 -->
<svg width="1838pt" height="284pt"
 viewBox="0.00 0.00 1838.00 284.00" xmlns="http://www.w3.org/2000/svg" xmlns:xlink="http://www.w3.org/1999/xlink">
<g id="graph0" class="graph" transform="scale(1 1) rotate(0) translate(4 280)">
<title>dependencies</title>
<polygon fill="white" stroke="transparent" points="-4,4 -4,-280 1834,-280 1834,4 -4,4"/>
<text text-anchor="start" x="894.01" y="-42.4" font-family="Times-12" font-weight="bold" font-size="14.00">Legend</text>
<polygon fill="#ffffb3" stroke="transparent" points="681,-10 681,-30 701,-30 701,-10 681,-10"/>
<text text-anchor="start" x="704.63" y="-15.4" font-family="Times-12" font-size="14.00"> &#160;Declarations</text>
<polygon fill="#8dd3c7" stroke="transparent" points="794,-10 794,-30 814,-30 814,-10 794,-10"/>
<text text-anchor="start" x="817.73" y="-15.4" font-family="Times-12" font-size="14.00"> &#160;Module</text>
<polygon fill="#80b1d3" stroke="transparent" points="880,-10 880,-30 900,-30 900,-10 880,-10"/>
<text text-anchor="start" x="903.78" y="-15.4" font-family="Times-12" font-size="14.00"> &#160;Bootstrap</text>
<polygon fill="#fdb462" stroke="transparent" points="977,-10 977,-30 997,-30 997,-10 977,-10"/>
<text text-anchor="start" x="1000.67" y="-15.4" font-family="Times-12" font-size="14.00"> &#160;Providers</text>
<polygon fill="#fb8072" stroke="transparent" points="1073,-10 1073,-30 1093,-30 1093,-10 1073,-10"/>
<text text-anchor="start" x="1096.73" y="-15.4" font-family="Times-12" font-size="14.00"> &#160;Exports</text>
<g id="clust1" class="cluster">
<title>cluster_AuthModule</title>
<polygon fill="none" stroke="black" stroke-dasharray="1,5" points="8,-70 8,-268 1822,-268 1822,-70 8,-70"/>
</g>
<g id="clust4" class="cluster">
<title>cluster_AuthModule_exports</title>
<polygon fill="none" stroke="black" points="140,-208 140,-260 1696,-260 1696,-208 140,-208"/>
</g>
<g id="clust6" class="cluster">
<title>cluster_AuthModule_providers</title>
<polygon fill="none" stroke="black" points="16,-78 16,-130 1814,-130 1814,-78 16,-78"/>
</g>
<!-- AdminService  -->
<g id="node1" class="node">
<title>AdminService </title>
<polygon fill="#fb8072" stroke="black" points="1688.37,-252 1587.63,-252 1587.63,-216 1688.37,-216 1688.37,-252"/>
<text text-anchor="middle" x="1638" y="-229.8" font-family="Times,serif" font-size="14.00">AdminService </text>
</g>
<!-- ApiKeyService  -->
<g id="node2" class="node">
<title>ApiKeyService </title>
<polygon fill="#fb8072" stroke="black" points="1569.8,-252 1464.2,-252 1464.2,-216 1569.8,-216 1569.8,-252"/>
<text text-anchor="middle" x="1517" y="-229.8" font-family="Times,serif" font-size="14.00">ApiKeyService </text>
</g>
<!-- AuthResponseHelper  -->
<g id="node3" class="node">
<title>AuthResponseHelper </title>
<polygon fill="#fb8072" stroke="black" points="1445.74,-252 1306.26,-252 1306.26,-216 1445.74,-216 1445.74,-252"/>
<text text-anchor="middle" x="1376" y="-229.8" font-family="Times,serif" font-size="14.00">AuthResponseHelper </text>
</g>
<!-- AuthService  -->
<g id="node4" class="node">
<title>AuthService </title>
<polygon fill="#fb8072" stroke="black" points="1288.98,-252 1199.02,-252 1199.02,-216 1288.98,-216 1288.98,-252"/>
<text text-anchor="middle" x="1244" y="-229.8" font-family="Times,serif" font-size="14.00">AuthService </text>
</g>
<!-- EmailOtpService  -->
<g id="node5" class="node">
<title>EmailOtpService </title>
<polygon fill="#fb8072" stroke="black" points="1180.91,-252 1065.09,-252 1065.09,-216 1180.91,-216 1180.91,-252"/>
<text text-anchor="middle" x="1123" y="-229.8" font-family="Times,serif" font-size="14.00">EmailOtpService </text>
</g>
<!-- MagicLinkService  -->
<g id="node6" class="node">
<title>MagicLinkService </title>
<polygon fill="#fb8072" stroke="black" points="1046.69,-252 923.31,-252 923.31,-216 1046.69,-216 1046.69,-252"/>
<text text-anchor="middle" x="985" y="-229.8" font-family="Times,serif" font-size="14.00">MagicLinkService </text>
</g>
<!-- MultiSessionService  -->
<g id="node7" class="node">
<title>MultiSessionService </title>
<polygon fill="#fb8072" stroke="black" points="904.87,-252 769.13,-252 769.13,-216 904.87,-216 904.87,-252"/>
<text text-anchor="middle" x="837" y="-229.8" font-family="Times,serif" font-size="14.00">MultiSessionService </text>
</g>
<!-- OrgsService  -->
<g id="node8" class="node">
<title>OrgsService </title>
<polygon fill="#fb8072" stroke="black" points="751.19,-252 662.81,-252 662.81,-216 751.19,-216 751.19,-252"/>
<text text-anchor="middle" x="707" y="-229.8" font-family="Times,serif" font-size="14.00">OrgsService </text>
</g>
<!-- PasskeyService  -->
<g id="node9" class="node">
<title>PasskeyService </title>
<polygon fill="#fb8072" stroke="black" points="644.08,-252 537.92,-252 537.92,-216 644.08,-216 644.08,-252"/>
<text text-anchor="middle" x="591" y="-229.8" font-family="Times,serif" font-size="14.00">PasskeyService </text>
</g>
<!-- TwoFactorService  -->
<g id="node10" class="node">
<title>TwoFactorService </title>
<polygon fill="#fb8072" stroke="black" points="519.4,-252 396.6,-252 396.6,-216 519.4,-216 519.4,-252"/>
<text text-anchor="middle" x="458" y="-229.8" font-family="Times,serif" font-size="14.00">TwoFactorService </text>
</g>
<!-- UsernameService  -->
<g id="node11" class="node">
<title>UsernameService </title>
<polygon fill="#fb8072" stroke="black" points="378.22,-252 259.78,-252 259.78,-216 378.22,-216 378.22,-252"/>
<text text-anchor="middle" x="319" y="-229.8" font-family="Times,serif" font-size="14.00">UsernameService </text>
</g>
<!-- UsersService  -->
<g id="node12" class="node">
<title>UsersService </title>
<polygon fill="#fb8072" stroke="black" points="241.85,-252 148.15,-252 148.15,-216 241.85,-216 241.85,-252"/>
<text text-anchor="middle" x="195" y="-229.8" font-family="Times,serif" font-size="14.00">UsersService </text>
</g>
<!-- AuthModule -->
<g id="node13" class="node">
<title>AuthModule</title>
<polygon fill="#8dd3c7" stroke="black" points="954.55,-187 951.55,-191 930.55,-191 927.55,-187 867.45,-187 867.45,-151 954.55,-151 954.55,-187"/>
<text text-anchor="middle" x="911" y="-164.8" font-family="Times,serif" font-size="14.00">AuthModule</text>
</g>
<!-- AuthModule&#45;&gt;AdminService  -->
<g id="edge1" class="edge">
<title>AuthModule&#45;&gt;AdminService </title>
<path fill="none" stroke="black" stroke-dasharray="5,2" d="M954.62,-171C1109.14,-171 1621.19,-171 1621.19,-171 1621.19,-171 1621.19,-205.78 1621.19,-205.78"/>
<polygon fill="black" stroke="black" points="1617.69,-205.78 1621.19,-215.78 1624.69,-205.78 1617.69,-205.78"/>
</g>
<!-- AuthModule&#45;&gt;ApiKeyService  -->
<g id="edge2" class="edge">
<title>AuthModule&#45;&gt;ApiKeyService </title>
<path fill="none" stroke="black" stroke-dasharray="5,2" d="M954.68,-174C1087.85,-174 1479.7,-174 1479.7,-174 1479.7,-174 1479.7,-206 1479.7,-206"/>
<polygon fill="black" stroke="black" points="1476.2,-206 1479.7,-216 1483.2,-206 1476.2,-206"/>
</g>
<!-- AuthModule&#45;&gt;AuthResponseHelper  -->
<g id="edge3" class="edge">
<title>AuthModule&#45;&gt;AuthResponseHelper </title>
<path fill="none" stroke="black" stroke-dasharray="5,2" d="M954.91,-178C1062.86,-178 1332.46,-178 1332.46,-178 1332.46,-178 1332.46,-205.97 1332.46,-205.97"/>
<polygon fill="black" stroke="black" points="1328.96,-205.97 1332.46,-215.97 1335.96,-205.97 1328.96,-205.97"/>
</g>
<!-- AuthModule&#45;&gt;AuthService  -->
<g id="edge4" class="edge">
<title>AuthModule&#45;&gt;AuthService </title>
<path fill="none" stroke="black" stroke-dasharray="5,2" d="M954.89,-181C1048.7,-181 1260.31,-181 1260.31,-181 1260.31,-181 1260.31,-205.76 1260.31,-205.76"/>
<polygon fill="black" stroke="black" points="1256.81,-205.76 1260.31,-215.76 1263.81,-205.76 1256.81,-205.76"/>
</g>
<!-- AuthModule&#45;&gt;EmailOtpService  -->
<g id="edge5" class="edge">
<title>AuthModule&#45;&gt;EmailOtpService </title>
<path fill="none" stroke="black" stroke-dasharray="5,2" d="M954.67,-184C1016.73,-184 1123,-184 1123,-184 1123,-184 1123,-205.95 1123,-205.95"/>
<polygon fill="black" stroke="black" points="1119.5,-205.95 1123,-215.95 1126.5,-205.95 1119.5,-205.95"/>
</g>
<!-- AuthModule&#45;&gt;MagicLinkService  -->
<g id="edge6" class="edge">
<title>AuthModule&#45;&gt;MagicLinkService </title>
<path fill="none" stroke="black" stroke-dasharray="5,2" d="M938.97,-187.11C938.97,-187.11 938.97,-205.99 938.97,-205.99"/>
<polygon fill="black" stroke="black" points="935.47,-205.99 938.97,-215.99 942.47,-205.99 935.47,-205.99"/>
</g>
<!-- AuthModule&#45;&gt;MultiSessionService  -->
<g id="edge7" class="edge">
<title>AuthModule&#45;&gt;MultiSessionService </title>
<path fill="none" stroke="black" stroke-dasharray="5,2" d="M885.96,-187.11C885.96,-187.11 885.96,-205.99 885.96,-205.99"/>
<polygon fill="black" stroke="black" points="882.46,-205.99 885.96,-215.99 889.46,-205.99 882.46,-205.99"/>
</g>
<!-- AuthModule&#45;&gt;OrgsService  -->
<g id="edge8" class="edge">
<title>AuthModule&#45;&gt;OrgsService </title>
<path fill="none" stroke="black" stroke-dasharray="5,2" d="M867.16,-184C810.15,-184 717.79,-184 717.79,-184 717.79,-184 717.79,-205.95 717.79,-205.95"/>
<polygon fill="black" stroke="black" points="714.29,-205.95 717.79,-215.95 721.29,-205.95 714.29,-205.95"/>
</g>
<!-- AuthModule&#45;&gt;PasskeyService  -->
<g id="edge9" class="edge">
<title>AuthModule&#45;&gt;PasskeyService </title>
<path fill="none" stroke="black" stroke-dasharray="5,2" d="M867.18,-181C779.54,-181 591,-181 591,-181 591,-181 591,-205.76 591,-205.76"/>
<polygon fill="black" stroke="black" points="587.5,-205.76 591,-215.76 594.5,-205.76 587.5,-205.76"/>
</g>
<!-- AuthModule&#45;&gt;TwoFactorService  -->
<g id="edge10" class="edge">
<title>AuthModule&#45;&gt;TwoFactorService </title>
<path fill="none" stroke="black" stroke-dasharray="5,2" d="M867.26,-178C763.84,-178 512.9,-178 512.9,-178 512.9,-178 512.9,-205.97 512.9,-205.97"/>
<polygon fill="black" stroke="black" points="509.4,-205.97 512.9,-215.97 516.4,-205.97 509.4,-205.97"/>
</g>
<!-- AuthModule&#45;&gt;UsernameService  -->
<g id="edge11" class="edge">
<title>AuthModule&#45;&gt;UsernameService </title>
<path fill="none" stroke="black" stroke-dasharray="5,2" d="M867.29,-174C736.94,-174 359.88,-174 359.88,-174 359.88,-174 359.88,-206 359.88,-206"/>
<polygon fill="black" stroke="black" points="356.38,-206 359.88,-216 363.38,-206 356.38,-206"/>
</g>
<!-- AuthModule&#45;&gt;UsersService  -->
<g id="edge12" class="edge">
<title>AuthModule&#45;&gt;UsersService </title>
<path fill="none" stroke="black" stroke-dasharray="5,2" d="M867.29,-171C713.1,-171 203.77,-171 203.77,-171 203.77,-171 203.77,-205.78 203.77,-205.78"/>
<polygon fill="black" stroke="black" points="200.27,-205.78 203.77,-215.78 207.27,-205.78 200.27,-205.78"/>
</g>
<!-- AdminService -->
<g id="node14" class="node">
<title>AdminService</title>
<ellipse fill="#fdb462" stroke="black" cx="1739" cy="-104" rx="66.63" ry="18"/>
<text text-anchor="middle" x="1739" y="-99.8" font-family="Times,serif" font-size="14.00">AdminService</text>
</g>
<!-- AdminService&#45;&gt;AuthModule -->
<g id="edge13" class="edge">
<title>AdminService&#45;&gt;AuthModule</title>
<path fill="none" stroke="black" d="M1680.18,-112.63C1680.18,-130.1 1680.18,-168 1680.18,-168 1680.18,-168 964.56,-168 964.56,-168"/>
<polygon fill="black" stroke="black" points="964.56,-164.5 954.56,-168 964.56,-171.5 964.56,-164.5"/>
</g>
<!-- ApiKeyService -->
<g id="node15" class="node">
<title>ApiKeyService</title>
<ellipse fill="#fdb462" stroke="black" cx="1584" cy="-104" rx="70.62" ry="18"/>
<text text-anchor="middle" x="1584" y="-99.8" font-family="Times,serif" font-size="14.00">ApiKeyService</text>
</g>
<!-- ApiKeyService&#45;&gt;AuthModule -->
<g id="edge14" class="edge">
<title>ApiKeyService&#45;&gt;AuthModule</title>
<path fill="none" stroke="black" d="M1541.67,-118.46C1541.67,-136.49 1541.67,-165 1541.67,-165 1541.67,-165 964.6,-165 964.6,-165"/>
<polygon fill="black" stroke="black" points="964.6,-161.5 954.6,-165 964.6,-168.5 964.6,-161.5"/>
</g>
<!-- AuthService -->
<g id="node16" class="node">
<title>AuthService</title>
<ellipse fill="#fdb462" stroke="black" cx="1436" cy="-104" rx="59.11" ry="18"/>
<text text-anchor="middle" x="1436" y="-99.8" font-family="Times,serif" font-size="14.00">AuthService</text>
</g>
<!-- AuthService&#45;&gt;AuthModule -->
<g id="edge15" class="edge">
<title>AuthService&#45;&gt;AuthModule</title>
<path fill="none" stroke="black" d="M1411.16,-120.49C1411.16,-137.32 1411.16,-161 1411.16,-161 1411.16,-161 964.95,-161 964.95,-161"/>
<polygon fill="black" stroke="black" points="964.95,-157.5 954.95,-161 964.95,-164.5 964.95,-157.5"/>
</g>
<!-- EmailOtpService -->
<g id="node17" class="node">
<title>EmailOtpService</title>
<ellipse fill="#fdb462" stroke="black" cx="1281" cy="-104" rx="77.58" ry="18"/>
<text text-anchor="middle" x="1281" y="-99.8" font-family="Times,serif" font-size="14.00">EmailOtpService</text>
</g>
<!-- EmailOtpService&#45;&gt;AuthModule -->
<g id="edge16" class="edge">
<title>EmailOtpService&#45;&gt;AuthModule</title>
<path fill="none" stroke="black" d="M1231.89,-118.19C1231.89,-134.19 1231.89,-158 1231.89,-158 1231.89,-158 964.61,-158 964.61,-158"/>
<polygon fill="black" stroke="black" points="964.61,-154.5 954.61,-158 964.61,-161.5 964.61,-154.5"/>
</g>
<!-- MagicLinkService -->
<g id="node18" class="node">
<title>MagicLinkService</title>
<ellipse fill="#fdb462" stroke="black" cx="1103" cy="-104" rx="82.8" ry="18"/>
<text text-anchor="middle" x="1103" y="-99.8" font-family="Times,serif" font-size="14.00">MagicLinkService</text>
</g>
<!-- MagicLinkService&#45;&gt;AuthModule -->
<g id="edge17" class="edge">
<title>MagicLinkService&#45;&gt;AuthModule</title>
<path fill="none" stroke="black" d="M1033.47,-113.83C1033.47,-128.65 1033.47,-155 1033.47,-155 1033.47,-155 964.87,-155 964.87,-155"/>
<polygon fill="black" stroke="black" points="964.87,-151.5 954.87,-155 964.87,-158.5 964.87,-151.5"/>
</g>
<!-- MultiSessionService -->
<g id="node19" class="node">
<title>MultiSessionService</title>
<ellipse fill="#fdb462" stroke="black" cx="911" cy="-104" rx="90.92" ry="18"/>
<text text-anchor="middle" x="911" y="-99.8" font-family="Times,serif" font-size="14.00">MultiSessionService</text>
</g>
<!-- MultiSessionService&#45;&gt;AuthModule -->
<g id="edge18" class="edge">
<title>MultiSessionService&#45;&gt;AuthModule</title>
<path fill="none" stroke="black" d="M911,-122.11C911,-122.11 911,-140.99 911,-140.99"/>
<polygon fill="black" stroke="black" points="907.5,-140.99 911,-150.99 914.5,-140.99 907.5,-140.99"/>
</g>
<!-- OrgsService -->
<g id="node20" class="node">
<title>OrgsService</title>
<ellipse fill="#fdb462" stroke="black" cx="743" cy="-104" rx="58.53" ry="18"/>
<text text-anchor="middle" x="743" y="-99.8" font-family="Times,serif" font-size="14.00">OrgsService</text>
</g>
<!-- OrgsService&#45;&gt;AuthModule -->
<g id="edge19" class="edge">
<title>OrgsService&#45;&gt;AuthModule</title>
<path fill="none" stroke="black" d="M785.54,-116.61C785.54,-131.71 785.54,-155 785.54,-155 785.54,-155 857.12,-155 857.12,-155"/>
<polygon fill="black" stroke="black" points="857.12,-158.5 867.12,-155 857.12,-151.5 857.12,-158.5"/>
</g>
<!-- PasskeyService -->
<g id="node21" class="node">
<title>PasskeyService</title>
<ellipse fill="#fdb462" stroke="black" cx="595" cy="-104" rx="71.2" ry="18"/>
<text text-anchor="middle" x="595" y="-99.8" font-family="Times,serif" font-size="14.00">PasskeyService</text>
</g>
<!-- PasskeyService&#45;&gt;AuthModule -->
<g id="edge20" class="edge">
<title>PasskeyService&#45;&gt;AuthModule</title>
<path fill="none" stroke="black" d="M653.47,-114.41C653.47,-130.1 653.47,-158 653.47,-158 653.47,-158 857.31,-158 857.31,-158"/>
<polygon fill="black" stroke="black" points="857.31,-161.5 867.31,-158 857.31,-154.5 857.31,-161.5"/>
</g>
<!-- TwoFactorService -->
<g id="node22" class="node">
<title>TwoFactorService</title>
<ellipse fill="#fdb462" stroke="black" cx="424" cy="-104" rx="82.22" ry="18"/>
<text text-anchor="middle" x="424" y="-99.8" font-family="Times,serif" font-size="14.00">TwoFactorService</text>
</g>
<!-- TwoFactorService&#45;&gt;AuthModule -->
<g id="edge21" class="edge">
<title>TwoFactorService&#45;&gt;AuthModule</title>
<path fill="none" stroke="black" d="M451.45,-121.1C451.45,-137.89 451.45,-161 451.45,-161 451.45,-161 857.35,-161 857.35,-161"/>
<polygon fill="black" stroke="black" points="857.35,-164.5 867.35,-161 857.35,-157.5 857.35,-164.5"/>
</g>
<!-- UsernameService -->
<g id="node23" class="node">
<title>UsernameService</title>
<ellipse fill="#fdb462" stroke="black" cx="245" cy="-104" rx="79.27" ry="18"/>
<text text-anchor="middle" x="245" y="-99.8" font-family="Times,serif" font-size="14.00">UsernameService</text>
</g>
<!-- UsernameService&#45;&gt;AuthModule -->
<g id="edge22" class="edge">
<title>UsernameService&#45;&gt;AuthModule</title>
<path fill="none" stroke="black" d="M292.01,-118.77C292.01,-136.82 292.01,-165 292.01,-165 292.01,-165 856.98,-165 856.98,-165"/>
<polygon fill="black" stroke="black" points="856.98,-168.5 866.98,-165 856.98,-161.5 856.98,-168.5"/>
</g>
<!-- UsersService -->
<g id="node24" class="node">
<title>UsersService</title>
<ellipse fill="#fdb462" stroke="black" cx="86" cy="-104" rx="61.95" ry="18"/>
<text text-anchor="middle" x="86" y="-99.8" font-family="Times,serif" font-size="14.00">UsersService</text>
</g>
<!-- UsersService&#45;&gt;AuthModule -->
<g id="edge23" class="edge">
<title>UsersService&#45;&gt;AuthModule</title>
<path fill="none" stroke="black" d="M86,-122.17C86,-141.09 86,-168 86,-168 86,-168 857.23,-168 857.23,-168"/>
<polygon fill="black" stroke="black" points="857.23,-171.5 867.23,-168 857.23,-164.5 857.23,-171.5"/>
</g>
</g>
</svg>
