<?xml version="1.0" encoding="UTF-8" standalone="no"?>
<!DOCTYPE svg PUBLIC "-//W3C//DTD SVG 1.1//EN"
 "http://www.w3.org/Graphics/SVG/1.1/DTD/svg11.dtd">
<!-- Generated by graphviz version 2.47.0 (20210316.0004)
 -->
<!-- Title: dependencies Pages: 1 -->
<svg width="504pt" height="284pt"
 viewBox="0.00 0.00 504.00 284.00" xmlns="http://www.w3.org/2000/svg" xmlns:xlink="http://www.w3.org/1999/xlink">
<g id="graph0" class="graph" transform="scale(1 1) rotate(0) translate(4 280)">
<title>dependencies</title>
<polygon fill="white" stroke="transparent" points="-4,4 -4,-280 500,-280 500,4 -4,4"/>
<text text-anchor="start" x="227.01" y="-42.4" font-family="Times-12" font-weight="bold" font-size="14.00">Legend</text>
<polygon fill="#ffffb3" stroke="transparent" points="14,-10 14,-30 34,-30 34,-10 14,-10"/>
<text text-anchor="start" x="37.63" y="-15.4" font-family="Times-12" font-size="14.00"> &#160;Declarations</text>
<polygon fill="#8dd3c7" stroke="transparent" points="127,-10 127,-30 147,-30 147,-10 127,-10"/>
<text text-anchor="start" x="150.73" y="-15.4" font-family="Times-12" font-size="14.00"> &#160;Module</text>
<polygon fill="#80b1d3" stroke="transparent" points="213,-10 213,-30 233,-30 233,-10 213,-10"/>
<text text-anchor="start" x="236.78" y="-15.4" font-family="Times-12" font-size="14.00"> &#160;Bootstrap</text>
<polygon fill="#fdb462" stroke="transparent" points="310,-10 310,-30 330,-30 330,-10 310,-10"/>
<text text-anchor="start" x="333.67" y="-15.4" font-family="Times-12" font-size="14.00"> &#160;Providers</text>
<polygon fill="#fb8072" stroke="transparent" points="406,-10 406,-30 426,-30 426,-10 406,-10"/>
<text text-anchor="start" x="429.73" y="-15.4" font-family="Times-12" font-size="14.00"> &#160;Exports</text>
<g id="clust1" class="cluster">
<title>cluster_BunnyModule</title>
<polygon fill="none" stroke="black" stroke-dasharray="1,5" points="76,-70 76,-268 420,-268 420,-70 76,-70"/>
</g>
<g id="clust3" class="cluster">
<title>cluster_BunnyModule_imports</title>
<polygon fill="none" stroke="black" points="298,-78 298,-130 412,-130 412,-78 298,-78"/>
</g>
<g id="clust4" class="cluster">
<title>cluster_BunnyModule_exports</title>
<polygon fill="none" stroke="black" points="181,-208 181,-260 339,-260 339,-208 181,-208"/>
</g>
<g id="clust6" class="cluster">
<title>cluster_BunnyModule_providers</title>
<polygon fill="none" stroke="black" points="84,-78 84,-130 290,-130 290,-78 84,-78"/>
</g>
<!-- ConfigModule -->
<g id="node1" class="node">
<title>ConfigModule</title>
<polygon fill="#8dd3c7" stroke="black" points="404.44,-122 401.44,-126 380.44,-126 377.44,-122 305.56,-122 305.56,-86 404.44,-86 404.44,-122"/>
<text text-anchor="middle" x="355" y="-99.8" font-family="Times,serif" font-size="14.00">ConfigModule</text>
</g>
<!-- BunnyModule -->
<g id="node2" class="node">
<title>BunnyModule</title>
<polygon fill="#8dd3c7" stroke="black" points="308.39,-187 305.39,-191 284.39,-191 281.39,-187 211.61,-187 211.61,-151 308.39,-151 308.39,-187"/>
<text text-anchor="middle" x="260" y="-164.8" font-family="Times,serif" font-size="14.00">BunnyModule</text>
</g>
<!-- ConfigModule&#45;&gt;BunnyModule -->
<g id="edge1" class="edge">
<title>ConfigModule&#45;&gt;BunnyModule</title>
<path fill="none" stroke="black" d="M305.77,-104C298.84,-104 294.01,-104 294.01,-104 294.01,-104 294.01,-140.89 294.01,-140.89"/>
<polygon fill="black" stroke="black" points="290.51,-140.89 294.01,-150.89 297.51,-140.89 290.51,-140.89"/>
</g>
<!-- BunnyStorageService  -->
<g id="node3" class="node">
<title>BunnyStorageService </title>
<polygon fill="#fb8072" stroke="black" points="330.58,-252 189.42,-252 189.42,-216 330.58,-216 330.58,-252"/>
<text text-anchor="middle" x="260" y="-229.8" font-family="Times,serif" font-size="14.00">BunnyStorageService </text>
</g>
<!-- BunnyModule&#45;&gt;BunnyStorageService  -->
<g id="edge2" class="edge">
<title>BunnyModule&#45;&gt;BunnyStorageService </title>
<path fill="none" stroke="black" stroke-dasharray="5,2" d="M260,-187.11C260,-187.11 260,-205.99 260,-205.99"/>
<polygon fill="black" stroke="black" points="256.5,-205.99 260,-215.99 263.5,-205.99 256.5,-205.99"/>
</g>
<!-- BunnyStorageService -->
<g id="node4" class="node">
<title>BunnyStorageService</title>
<ellipse fill="#fdb462" stroke="black" cx="187" cy="-104" rx="95.49" ry="18"/>
<text text-anchor="middle" x="187" y="-99.8" font-family="Times,serif" font-size="14.00">BunnyStorageService</text>
</g>
<!-- BunnyStorageService&#45;&gt;BunnyModule -->
<g id="edge3" class="edge">
<title>BunnyStorageService&#45;&gt;BunnyModule</title>
<path fill="none" stroke="black" d="M246.9,-118.1C246.9,-118.1 246.9,-140.72 246.9,-140.72"/>
<polygon fill="black" stroke="black" points="243.4,-140.72 246.9,-150.72 250.4,-140.72 243.4,-140.72"/>
</g>
</g>
</svg>
