<?xml version="1.0" encoding="UTF-8" standalone="no"?>
<!DOCTYPE svg PUBLIC "-//W3C//DTD SVG 1.1//EN"
 "http://www.w3.org/Graphics/SVG/1.1/DTD/svg11.dtd">
<!-- Generated by graphviz version 2.47.0 (20210316.0004)
 -->
<!-- Title: dependencies Pages: 1 -->
<svg width="504pt" height="284pt"
 viewBox="0.00 0.00 504.00 284.00" xmlns="http://www.w3.org/2000/svg" xmlns:xlink="http://www.w3.org/1999/xlink">
<g id="graph0" class="graph" transform="scale(1 1) rotate(0) translate(4 280)">
<title>dependencies</title>
<polygon fill="white" stroke="transparent" points="-4,4 -4,-280 500,-280 500,4 -4,4"/>
<text text-anchor="start" x="227.01" y="-42.4" font-family="Times-12" font-weight="bold" font-size="14.00">Legend</text>
<polygon fill="#ffffb3" stroke="transparent" points="14,-10 14,-30 34,-30 34,-10 14,-10"/>
<text text-anchor="start" x="37.63" y="-15.4" font-family="Times-12" font-size="14.00"> &#160;Declarations</text>
<polygon fill="#8dd3c7" stroke="transparent" points="127,-10 127,-30 147,-30 147,-10 127,-10"/>
<text text-anchor="start" x="150.73" y="-15.4" font-family="Times-12" font-size="14.00"> &#160;Module</text>
<polygon fill="#80b1d3" stroke="transparent" points="213,-10 213,-30 233,-30 233,-10 213,-10"/>
<text text-anchor="start" x="236.78" y="-15.4" font-family="Times-12" font-size="14.00"> &#160;Bootstrap</text>
<polygon fill="#fdb462" stroke="transparent" points="310,-10 310,-30 330,-30 330,-10 310,-10"/>
<text text-anchor="start" x="333.67" y="-15.4" font-family="Times-12" font-size="14.00"> &#160;Providers</text>
<polygon fill="#fb8072" stroke="transparent" points="406,-10 406,-30 426,-30 426,-10 406,-10"/>
<text text-anchor="start" x="429.73" y="-15.4" font-family="Times-12" font-size="14.00"> &#160;Exports</text>
<g id="clust1" class="cluster">
<title>cluster_DatabaseModule</title>
<polygon fill="none" stroke="black" stroke-dasharray="1,5" points="19,-70 19,-268 477,-268 477,-70 19,-70"/>
</g>
<g id="clust4" class="cluster">
<title>cluster_DatabaseModule_exports</title>
<polygon fill="none" stroke="black" points="143,-208 143,-260 391,-260 391,-208 143,-208"/>
</g>
<g id="clust3" class="cluster">
<title>cluster_DatabaseModule_imports</title>
<polygon fill="none" stroke="black" points="355,-78 355,-130 469,-130 469,-78 355,-78"/>
</g>
<g id="clust6" class="cluster">
<title>cluster_DatabaseModule_providers</title>
<polygon fill="none" stroke="black" points="27,-78 27,-130 347,-130 347,-78 27,-78"/>
</g>
<!-- ConfigModule -->
<g id="node1" class="node">
<title>ConfigModule</title>
<polygon fill="#8dd3c7" stroke="black" points="461.44,-122 458.44,-126 437.44,-126 434.44,-122 362.56,-122 362.56,-86 461.44,-86 461.44,-122"/>
<text text-anchor="middle" x="412" y="-99.8" font-family="Times,serif" font-size="14.00">ConfigModule</text>
</g>
<!-- DatabaseModule -->
<g id="node2" class="node">
<title>DatabaseModule</title>
<polygon fill="#8dd3c7" stroke="black" points="319.35,-187 316.35,-191 295.35,-191 292.35,-187 208.65,-187 208.65,-151 319.35,-151 319.35,-187"/>
<text text-anchor="middle" x="264" y="-164.8" font-family="Times,serif" font-size="14.00">DatabaseModule</text>
</g>
<!-- ConfigModule&#45;&gt;DatabaseModule -->
<g id="edge1" class="edge">
<title>ConfigModule&#45;&gt;DatabaseModule</title>
<path fill="none" stroke="black" d="M373.09,-122.11C373.09,-141.34 373.09,-169 373.09,-169 373.09,-169 329.5,-169 329.5,-169"/>
<polygon fill="black" stroke="black" points="329.5,-165.5 319.5,-169 329.5,-172.5 329.5,-165.5"/>
</g>
<!-- DatabaseService  -->
<g id="node3" class="node">
<title>DatabaseService </title>
<polygon fill="#fb8072" stroke="black" points="383.28,-252 270.72,-252 270.72,-216 383.28,-216 383.28,-252"/>
<text text-anchor="middle" x="327" y="-229.8" font-family="Times,serif" font-size="14.00">DatabaseService </text>
</g>
<!-- DatabaseModule&#45;&gt;DatabaseService  -->
<g id="edge2" class="edge">
<title>DatabaseModule&#45;&gt;DatabaseService </title>
<path fill="none" stroke="black" stroke-dasharray="5,2" d="M295.02,-187.11C295.02,-187.11 295.02,-205.99 295.02,-205.99"/>
<polygon fill="black" stroke="black" points="291.52,-205.99 295.02,-215.99 298.52,-205.99 291.52,-205.99"/>
</g>
<!-- PgPoolService  -->
<g id="node4" class="node">
<title>PgPoolService </title>
<polygon fill="#fb8072" stroke="black" points="252.93,-252 151.07,-252 151.07,-216 252.93,-216 252.93,-252"/>
<text text-anchor="middle" x="202" y="-229.8" font-family="Times,serif" font-size="14.00">PgPoolService </text>
</g>
<!-- DatabaseModule&#45;&gt;PgPoolService  -->
<g id="edge3" class="edge">
<title>DatabaseModule&#45;&gt;PgPoolService </title>
<path fill="none" stroke="black" stroke-dasharray="5,2" d="M230.77,-187.11C230.77,-187.11 230.77,-205.99 230.77,-205.99"/>
<polygon fill="black" stroke="black" points="227.27,-205.99 230.77,-215.99 234.27,-205.99 227.27,-205.99"/>
</g>
<!-- DatabaseService -->
<g id="node5" class="node">
<title>DatabaseService</title>
<ellipse fill="#fdb462" stroke="black" cx="264" cy="-104" rx="75.26" ry="18"/>
<text text-anchor="middle" x="264" y="-99.8" font-family="Times,serif" font-size="14.00">DatabaseService</text>
</g>
<!-- DatabaseService&#45;&gt;DatabaseModule -->
<g id="edge4" class="edge">
<title>DatabaseService&#45;&gt;DatabaseModule</title>
<path fill="none" stroke="black" d="M264,-122.11C264,-122.11 264,-140.99 264,-140.99"/>
<polygon fill="black" stroke="black" points="260.5,-140.99 264,-150.99 267.5,-140.99 260.5,-140.99"/>
</g>
<!-- PgPoolService -->
<g id="node6" class="node">
<title>PgPoolService</title>
<ellipse fill="#fdb462" stroke="black" cx="103" cy="-104" rx="67.8" ry="18"/>
<text text-anchor="middle" x="103" y="-99.8" font-family="Times,serif" font-size="14.00">PgPoolService</text>
</g>
<!-- PgPoolService&#45;&gt;DatabaseModule -->
<g id="edge5" class="edge">
<title>PgPoolService&#45;&gt;DatabaseModule</title>
<path fill="none" stroke="black" d="M160.97,-113.59C160.97,-131.67 160.97,-169 160.97,-169 160.97,-169 198.56,-169 198.56,-169"/>
<polygon fill="black" stroke="black" points="198.56,-172.5 208.56,-169 198.56,-165.5 198.56,-172.5"/>
</g>
</g>
</svg>
