<?xml version="1.0" encoding="UTF-8" standalone="no"?>
<!DOCTYPE svg PUBLIC "-//W3C//DTD SVG 1.1//EN"
 "http://www.w3.org/Graphics/SVG/1.1/DTD/svg11.dtd">
<!-- Generated by graphviz version 2.47.0 (20210316.0004)
 -->
<!-- Title: dependencies Pages: 1 -->
<svg width="504pt" height="284pt"
 viewBox="0.00 0.00 504.00 284.00" xmlns="http://www.w3.org/2000/svg" xmlns:xlink="http://www.w3.org/1999/xlink">
<g id="graph0" class="graph" transform="scale(1 1) rotate(0) translate(4 280)">
<title>dependencies</title>
<polygon fill="white" stroke="transparent" points="-4,4 -4,-280 500,-280 500,4 -4,4"/>
<text text-anchor="start" x="227.01" y="-42.4" font-family="Times-12" font-weight="bold" font-size="14.00">Legend</text>
<polygon fill="#ffffb3" stroke="transparent" points="14,-10 14,-30 34,-30 34,-10 14,-10"/>
<text text-anchor="start" x="37.63" y="-15.4" font-family="Times-12" font-size="14.00"> &#160;Declarations</text>
<polygon fill="#8dd3c7" stroke="transparent" points="127,-10 127,-30 147,-30 147,-10 127,-10"/>
<text text-anchor="start" x="150.73" y="-15.4" font-family="Times-12" font-size="14.00"> &#160;Module</text>
<polygon fill="#80b1d3" stroke="transparent" points="213,-10 213,-30 233,-30 233,-10 213,-10"/>
<text text-anchor="start" x="236.78" y="-15.4" font-family="Times-12" font-size="14.00"> &#160;Bootstrap</text>
<polygon fill="#fdb462" stroke="transparent" points="310,-10 310,-30 330,-30 330,-10 310,-10"/>
<text text-anchor="start" x="333.67" y="-15.4" font-family="Times-12" font-size="14.00"> &#160;Providers</text>
<polygon fill="#fb8072" stroke="transparent" points="406,-10 406,-30 426,-30 426,-10 406,-10"/>
<text text-anchor="start" x="429.73" y="-15.4" font-family="Times-12" font-size="14.00"> &#160;Exports</text>
<g id="clust1" class="cluster">
<title>cluster_PubSubModule</title>
<polygon fill="none" stroke="black" stroke-dasharray="1,5" points="95,-70 95,-268 401,-268 401,-70 95,-70"/>
</g>
<g id="clust3" class="cluster">
<title>cluster_PubSubModule_imports</title>
<polygon fill="none" stroke="black" points="267,-78 267,-130 393,-130 393,-78 267,-78"/>
</g>
<g id="clust4" class="cluster">
<title>cluster_PubSubModule_exports</title>
<polygon fill="none" stroke="black" points="194,-208 194,-260 316,-260 316,-208 194,-208"/>
</g>
<g id="clust6" class="cluster">
<title>cluster_PubSubModule_providers</title>
<polygon fill="none" stroke="black" points="103,-78 103,-130 259,-130 259,-78 103,-78"/>
</g>
<!-- DatabaseModule -->
<g id="node1" class="node">
<title>DatabaseModule</title>
<polygon fill="#8dd3c7" stroke="black" points="385.35,-122 382.35,-126 361.35,-126 358.35,-122 274.65,-122 274.65,-86 385.35,-86 385.35,-122"/>
<text text-anchor="middle" x="330" y="-99.8" font-family="Times,serif" font-size="14.00">DatabaseModule</text>
</g>
<!-- PubSubModule -->
<g id="node2" class="node">
<title>PubSubModule</title>
<polygon fill="#8dd3c7" stroke="black" points="306.62,-187 303.62,-191 282.62,-191 279.62,-187 203.38,-187 203.38,-151 306.62,-151 306.62,-187"/>
<text text-anchor="middle" x="255" y="-164.8" font-family="Times,serif" font-size="14.00">PubSubModule</text>
</g>
<!-- DatabaseModule&#45;&gt;PubSubModule -->
<g id="edge1" class="edge">
<title>DatabaseModule&#45;&gt;PubSubModule</title>
<path fill="none" stroke="black" d="M290.57,-122.11C290.57,-122.11 290.57,-140.99 290.57,-140.99"/>
<polygon fill="black" stroke="black" points="287.07,-140.99 290.57,-150.99 294.07,-140.99 287.07,-140.99"/>
</g>
<!-- PubSubService  -->
<g id="node3" class="node">
<title>PubSubService </title>
<polygon fill="#fb8072" stroke="black" points="307.54,-252 202.46,-252 202.46,-216 307.54,-216 307.54,-252"/>
<text text-anchor="middle" x="255" y="-229.8" font-family="Times,serif" font-size="14.00">PubSubService </text>
</g>
<!-- PubSubModule&#45;&gt;PubSubService  -->
<g id="edge2" class="edge">
<title>PubSubModule&#45;&gt;PubSubService </title>
<path fill="none" stroke="black" stroke-dasharray="5,2" d="M255,-187.11C255,-187.11 255,-205.99 255,-205.99"/>
<polygon fill="black" stroke="black" points="251.5,-205.99 255,-215.99 258.5,-205.99 251.5,-205.99"/>
</g>
<!-- PubSubService -->
<g id="node4" class="node">
<title>PubSubService</title>
<ellipse fill="#fdb462" stroke="black" cx="181" cy="-104" rx="70.08" ry="18"/>
<text text-anchor="middle" x="181" y="-99.8" font-family="Times,serif" font-size="14.00">PubSubService</text>
</g>
<!-- PubSubService&#45;&gt;PubSubModule -->
<g id="edge3" class="edge">
<title>PubSubService&#45;&gt;PubSubModule</title>
<path fill="none" stroke="black" d="M227.24,-117.78C227.24,-117.78 227.24,-140.55 227.24,-140.55"/>
<polygon fill="black" stroke="black" points="223.74,-140.55 227.24,-150.55 230.74,-140.55 223.74,-140.55"/>
</g>
</g>
</svg>
