<?xml version="1.0" encoding="UTF-8" standalone="no"?>
<!DOCTYPE svg PUBLIC "-//W3C//DTD SVG 1.1//EN"
 "http://www.w3.org/Graphics/SVG/1.1/DTD/svg11.dtd">
<!-- Generated by graphviz version 2.47.0 (20210316.0004)
 -->
<!-- Title: dependencies Pages: 1 -->
<svg width="504pt" height="284pt"
 viewBox="0.00 0.00 504.00 284.00" xmlns="http://www.w3.org/2000/svg" xmlns:xlink="http://www.w3.org/1999/xlink">
<g id="graph0" class="graph" transform="scale(1 1) rotate(0) translate(4 280)">
<title>dependencies</title>
<polygon fill="white" stroke="transparent" points="-4,4 -4,-280 500,-280 500,4 -4,4"/>
<text text-anchor="start" x="227.01" y="-42.4" font-family="Times-12" font-weight="bold" font-size="14.00">Legend</text>
<polygon fill="#ffffb3" stroke="transparent" points="14,-10 14,-30 34,-30 34,-10 14,-10"/>
<text text-anchor="start" x="37.63" y="-15.4" font-family="Times-12" font-size="14.00"> &#160;Declarations</text>
<polygon fill="#8dd3c7" stroke="transparent" points="127,-10 127,-30 147,-30 147,-10 127,-10"/>
<text text-anchor="start" x="150.73" y="-15.4" font-family="Times-12" font-size="14.00"> &#160;Module</text>
<polygon fill="#80b1d3" stroke="transparent" points="213,-10 213,-30 233,-30 233,-10 213,-10"/>
<text text-anchor="start" x="236.78" y="-15.4" font-family="Times-12" font-size="14.00"> &#160;Bootstrap</text>
<polygon fill="#fdb462" stroke="transparent" points="310,-10 310,-30 330,-30 330,-10 310,-10"/>
<text text-anchor="start" x="333.67" y="-15.4" font-family="Times-12" font-size="14.00"> &#160;Providers</text>
<polygon fill="#fb8072" stroke="transparent" points="406,-10 406,-30 426,-30 426,-10 406,-10"/>
<text text-anchor="start" x="429.73" y="-15.4" font-family="Times-12" font-size="14.00"> &#160;Exports</text>
<g id="clust1" class="cluster">
<title>cluster_CacheModule</title>
<polygon fill="none" stroke="black" stroke-dasharray="1,5" points="101,-70 101,-268 395,-268 395,-70 101,-70"/>
</g>
<g id="clust6" class="cluster">
<title>cluster_CacheModule_providers</title>
<polygon fill="none" stroke="black" points="243,-78 243,-130 387,-130 387,-78 243,-78"/>
</g>
<g id="clust4" class="cluster">
<title>cluster_CacheModule_exports</title>
<polygon fill="none" stroke="black" points="187,-208 187,-260 299,-260 299,-208 187,-208"/>
</g>
<g id="clust3" class="cluster">
<title>cluster_CacheModule_imports</title>
<polygon fill="none" stroke="black" points="109,-78 109,-130 235,-130 235,-78 109,-78"/>
</g>
<!-- DatabaseModule -->
<g id="node1" class="node">
<title>DatabaseModule</title>
<polygon fill="#8dd3c7" stroke="black" points="227.35,-122 224.35,-126 203.35,-126 200.35,-122 116.65,-122 116.65,-86 227.35,-86 227.35,-122"/>
<text text-anchor="middle" x="172" y="-99.8" font-family="Times,serif" font-size="14.00">DatabaseModule</text>
</g>
<!-- CacheModule -->
<g id="node2" class="node">
<title>CacheModule</title>
<polygon fill="#8dd3c7" stroke="black" points="290.03,-187 287.03,-191 266.03,-191 263.03,-187 195.97,-187 195.97,-151 290.03,-151 290.03,-187"/>
<text text-anchor="middle" x="243" y="-164.8" font-family="Times,serif" font-size="14.00">CacheModule</text>
</g>
<!-- DatabaseModule&#45;&gt;CacheModule -->
<g id="edge1" class="edge">
<title>DatabaseModule&#45;&gt;CacheModule</title>
<path fill="none" stroke="black" d="M211.58,-122.11C211.58,-122.11 211.58,-140.99 211.58,-140.99"/>
<polygon fill="black" stroke="black" points="208.08,-140.99 211.58,-150.99 215.08,-140.99 208.08,-140.99"/>
</g>
<!-- CacheService  -->
<g id="node3" class="node">
<title>CacheService </title>
<polygon fill="#fb8072" stroke="black" points="291.46,-252 194.54,-252 194.54,-216 291.46,-216 291.46,-252"/>
<text text-anchor="middle" x="243" y="-229.8" font-family="Times,serif" font-size="14.00">CacheService </text>
</g>
<!-- CacheModule&#45;&gt;CacheService  -->
<g id="edge2" class="edge">
<title>CacheModule&#45;&gt;CacheService </title>
<path fill="none" stroke="black" stroke-dasharray="5,2" d="M243,-187.11C243,-187.11 243,-205.99 243,-205.99"/>
<polygon fill="black" stroke="black" points="239.5,-205.99 243,-215.99 246.5,-205.99 239.5,-205.99"/>
</g>
<!-- CacheService -->
<g id="node4" class="node">
<title>CacheService</title>
<ellipse fill="#fdb462" stroke="black" cx="315" cy="-104" rx="64.24" ry="18"/>
<text text-anchor="middle" x="315" y="-99.8" font-family="Times,serif" font-size="14.00">CacheService</text>
</g>
<!-- CacheService&#45;&gt;CacheModule -->
<g id="edge3" class="edge">
<title>CacheService&#45;&gt;CacheModule</title>
<path fill="none" stroke="black" d="M270.57,-117.15C270.57,-117.15 270.57,-140.69 270.57,-140.69"/>
<polygon fill="black" stroke="black" points="267.07,-140.69 270.57,-150.69 274.07,-140.69 267.07,-140.69"/>
</g>
</g>
</svg>
