<?xml version="1.0" encoding="UTF-8" standalone="no"?>
<!DOCTYPE svg PUBLIC "-//W3C//DTD SVG 1.1//EN"
 "http://www.w3.org/Graphics/SVG/1.1/DTD/svg11.dtd">
<!-- Generated by graphviz version 2.47.0 (20210316.0004)
 -->
<!-- Title: dependencies Pages: 1 -->
<svg width="504pt" height="284pt"
 viewBox="0.00 0.00 504.00 284.00" xmlns="http://www.w3.org/2000/svg" xmlns:xlink="http://www.w3.org/1999/xlink">
<g id="graph0" class="graph" transform="scale(1 1) rotate(0) translate(4 280)">
<title>dependencies</title>
<polygon fill="white" stroke="transparent" points="-4,4 -4,-280 500,-280 500,4 -4,4"/>
<text text-anchor="start" x="227.01" y="-42.4" font-family="Times-12" font-weight="bold" font-size="14.00">Legend</text>
<polygon fill="#ffffb3" stroke="transparent" points="14,-10 14,-30 34,-30 34,-10 14,-10"/>
<text text-anchor="start" x="37.63" y="-15.4" font-family="Times-12" font-size="14.00"> &#160;Declarations</text>
<polygon fill="#8dd3c7" stroke="transparent" points="127,-10 127,-30 147,-30 147,-10 127,-10"/>
<text text-anchor="start" x="150.73" y="-15.4" font-family="Times-12" font-size="14.00"> &#160;Module</text>
<polygon fill="#80b1d3" stroke="transparent" points="213,-10 213,-30 233,-30 233,-10 213,-10"/>
<text text-anchor="start" x="236.78" y="-15.4" font-family="Times-12" font-size="14.00"> &#160;Bootstrap</text>
<polygon fill="#fdb462" stroke="transparent" points="310,-10 310,-30 330,-30 330,-10 310,-10"/>
<text text-anchor="start" x="333.67" y="-15.4" font-family="Times-12" font-size="14.00"> &#160;Providers</text>
<polygon fill="#fb8072" stroke="transparent" points="406,-10 406,-30 426,-30 426,-10 406,-10"/>
<text text-anchor="start" x="429.73" y="-15.4" font-family="Times-12" font-size="14.00"> &#160;Exports</text>
<g id="clust1" class="cluster">
<title>cluster_QueueModule</title>
<polygon fill="none" stroke="black" stroke-dasharray="1,5" points="100,-70 100,-268 396,-268 396,-70 100,-70"/>
</g>
<g id="clust3" class="cluster">
<title>cluster_QueueModule_imports</title>
<polygon fill="none" stroke="black" points="262,-78 262,-130 388,-130 388,-78 262,-78"/>
</g>
<g id="clust6" class="cluster">
<title>cluster_QueueModule_providers</title>
<polygon fill="none" stroke="black" points="108,-78 108,-130 254,-130 254,-78 108,-78"/>
</g>
<g id="clust4" class="cluster">
<title>cluster_QueueModule_exports</title>
<polygon fill="none" stroke="black" points="196,-208 196,-260 310,-260 310,-208 196,-208"/>
</g>
<!-- DatabaseModule -->
<g id="node1" class="node">
<title>DatabaseModule</title>
<polygon fill="#8dd3c7" stroke="black" points="380.35,-122 377.35,-126 356.35,-126 353.35,-122 269.65,-122 269.65,-86 380.35,-86 380.35,-122"/>
<text text-anchor="middle" x="325" y="-99.8" font-family="Times,serif" font-size="14.00">DatabaseModule</text>
</g>
<!-- QueueModule -->
<g id="node2" class="node">
<title>QueueModule</title>
<polygon fill="#8dd3c7" stroke="black" points="301.09,-187 298.09,-191 277.09,-191 274.09,-187 204.91,-187 204.91,-151 301.09,-151 301.09,-187"/>
<text text-anchor="middle" x="253" y="-164.8" font-family="Times,serif" font-size="14.00">QueueModule</text>
</g>
<!-- DatabaseModule&#45;&gt;QueueModule -->
<g id="edge1" class="edge">
<title>DatabaseModule&#45;&gt;QueueModule</title>
<path fill="none" stroke="black" d="M285.31,-122.11C285.31,-122.11 285.31,-140.99 285.31,-140.99"/>
<polygon fill="black" stroke="black" points="281.81,-140.99 285.31,-150.99 288.81,-140.99 281.81,-140.99"/>
</g>
<!-- QueueService  -->
<g id="node3" class="node">
<title>QueueService </title>
<polygon fill="#fb8072" stroke="black" points="302.01,-252 203.99,-252 203.99,-216 302.01,-216 302.01,-252"/>
<text text-anchor="middle" x="253" y="-229.8" font-family="Times,serif" font-size="14.00">QueueService </text>
</g>
<!-- QueueModule&#45;&gt;QueueService  -->
<g id="edge2" class="edge">
<title>QueueModule&#45;&gt;QueueService </title>
<path fill="none" stroke="black" stroke-dasharray="5,2" d="M253,-187.11C253,-187.11 253,-205.99 253,-205.99"/>
<polygon fill="black" stroke="black" points="249.5,-205.99 253,-215.99 256.5,-205.99 249.5,-205.99"/>
</g>
<!-- QueueService -->
<g id="node4" class="node">
<title>QueueService</title>
<ellipse fill="#fdb462" stroke="black" cx="181" cy="-104" rx="65.39" ry="18"/>
<text text-anchor="middle" x="181" y="-99.8" font-family="Times,serif" font-size="14.00">QueueService</text>
</g>
<!-- QueueService&#45;&gt;QueueModule -->
<g id="edge3" class="edge">
<title>QueueService&#45;&gt;QueueModule</title>
<path fill="none" stroke="black" d="M225.58,-117.15C225.58,-117.15 225.58,-140.69 225.58,-140.69"/>
<polygon fill="black" stroke="black" points="222.08,-140.69 225.58,-150.69 229.08,-140.69 222.08,-140.69"/>
</g>
</g>
</svg>
