<?xml version="1.0" encoding="UTF-8" standalone="no"?>
<!DOCTYPE svg PUBLIC "-//W3C//DTD SVG 1.1//EN"
 "http://www.w3.org/Graphics/SVG/1.1/DTD/svg11.dtd">
<!-- Generated by graphviz version 2.47.0 (20210316.0004)
 -->
<!-- Title: dependencies Pages: 1 -->
<svg width="4070pt" height="360pt"
 viewBox="0.00 0.00 4070.00 360.00" xmlns="http://www.w3.org/2000/svg" xmlns:xlink="http://www.w3.org/1999/xlink">
<g id="graph0" class="graph" transform="scale(1 1) rotate(0) translate(4 356)">
<title>dependencies</title>
<polygon fill="white" stroke="transparent" points="-4,4 -4,-356 4066,-356 4066,4 -4,4"/>
<text text-anchor="start" x="2010.01" y="-42.4" font-family="Times-12" font-weight="bold" font-size="14.00">Legend</text>
<polygon fill="#ffffb3" stroke="transparent" points="1797,-10 1797,-30 1817,-30 1817,-10 1797,-10"/>
<text text-anchor="start" x="1820.63" y="-15.4" font-family="Times-12" font-size="14.00"> &#160;Declarations</text>
<polygon fill="#8dd3c7" stroke="transparent" points="1910,-10 1910,-30 1930,-30 1930,-10 1910,-10"/>
<text text-anchor="start" x="1933.73" y="-15.4" font-family="Times-12" font-size="14.00"> &#160;Module</text>
<polygon fill="#80b1d3" stroke="transparent" points="1996,-10 1996,-30 2016,-30 2016,-10 1996,-10"/>
<text text-anchor="start" x="2019.78" y="-15.4" font-family="Times-12" font-size="14.00"> &#160;Bootstrap</text>
<polygon fill="#fdb462" stroke="transparent" points="2093,-10 2093,-30 2113,-30 2113,-10 2093,-10"/>
<text text-anchor="start" x="2116.67" y="-15.4" font-family="Times-12" font-size="14.00"> &#160;Providers</text>
<polygon fill="#fb8072" stroke="transparent" points="2189,-10 2189,-30 2209,-30 2209,-10 2189,-10"/>
<text text-anchor="start" x="2212.73" y="-15.4" font-family="Times-12" font-size="14.00"> &#160;Exports</text>
<g id="clust1" class="cluster">
<title>cluster_AppModule</title>
<polygon fill="none" stroke="black" stroke-dasharray="1,5" points="8,-70 8,-336 452,-336 452,-70 8,-70"/>
</g>
<g id="clust3" class="cluster">
<title>cluster_AppModule_imports</title>
<polygon fill="none" stroke="black" points="88,-143 88,-260 444,-260 444,-143 88,-143"/>
</g>
<g id="clust6" class="cluster">
<title>cluster_AppModule_providers</title>
<polygon fill="none" stroke="black" points="16,-78 16,-130 282,-130 282,-78 16,-78"/>
</g>
<g id="clust7" class="cluster">
<title>cluster_AuthModule</title>
<polygon fill="none" stroke="black" stroke-dasharray="1,5" points="460,-200 460,-268 3700,-268 3700,-200 460,-200"/>
</g>
<g id="clust10" class="cluster">
<title>cluster_AuthModule_exports</title>
<polygon fill="none" stroke="black" points="2137,-208 2137,-260 3692,-260 3692,-208 2137,-208"/>
</g>
<g id="clust12" class="cluster">
<title>cluster_AuthModule_providers</title>
<polygon fill="none" stroke="black" points="468,-208 468,-260 2129,-260 2129,-208 468,-208"/>
</g>
<g id="clust13" class="cluster">
<title>cluster_BunnyModule</title>
<polygon fill="none" stroke="black" stroke-dasharray="1,5" points="460,-276 460,-344 848,-344 848,-276 460,-276"/>
</g>
<g id="clust16" class="cluster">
<title>cluster_BunnyModule_exports</title>
<polygon fill="none" stroke="black" points="682,-284 682,-336 840,-336 840,-284 682,-284"/>
</g>
<g id="clust18" class="cluster">
<title>cluster_BunnyModule_providers</title>
<polygon fill="none" stroke="black" points="468,-284 468,-336 674,-336 674,-284 468,-284"/>
</g>
<g id="clust19" class="cluster">
<title>cluster_ConfigModule</title>
<polygon fill="none" stroke="black" stroke-dasharray="1,5" points="3708,-200 3708,-268 4054,-268 4054,-200 3708,-200"/>
</g>
<g id="clust22" class="cluster">
<title>cluster_ConfigModule_exports</title>
<polygon fill="none" stroke="black" points="3906,-208 3906,-260 4046,-260 4046,-208 3906,-208"/>
</g>
<g id="clust24" class="cluster">
<title>cluster_ConfigModule_providers</title>
<polygon fill="none" stroke="black" points="3716,-208 3716,-260 3898,-260 3898,-208 3716,-208"/>
</g>
<g id="clust25" class="cluster">
<title>cluster_DatabaseModule</title>
<polygon fill="none" stroke="black" stroke-dasharray="1,5" points="856,-276 856,-344 1174,-344 1174,-276 856,-276"/>
</g>
<g id="clust28" class="cluster">
<title>cluster_DatabaseModule_exports</title>
<polygon fill="none" stroke="black" points="1038,-284 1038,-336 1166,-336 1166,-284 1038,-284"/>
</g>
<g id="clust30" class="cluster">
<title>cluster_DatabaseModule_providers</title>
<polygon fill="none" stroke="black" points="864,-284 864,-336 1030,-336 1030,-284 864,-284"/>
</g>
<!-- AuthModule -->
<g id="node1" class="node">
<title>AuthModule</title>
<polygon fill="#8dd3c7" stroke="black" points="435.55,-187 432.55,-191 411.55,-191 408.55,-187 348.45,-187 348.45,-151 435.55,-151 435.55,-187"/>
<text text-anchor="middle" x="392" y="-164.8" font-family="Times,serif" font-size="14.00">AuthModule</text>
</g>
<!-- AppModule -->
<g id="node6" class="node">
<title>AppModule</title>
<polygon fill="#8dd3c7" stroke="black" points="118.66,-328 115.66,-332 94.66,-332 91.66,-328 35.34,-328 35.34,-292 118.66,-292 118.66,-328"/>
<text text-anchor="middle" x="77" y="-305.8" font-family="Times,serif" font-size="14.00">AppModule</text>
</g>
<!-- AuthModule&#45;&gt;AppModule -->
<g id="edge1" class="edge">
<title>AuthModule&#45;&gt;AppModule</title>
<path fill="none" stroke="black" d="M392,-187.13C392,-197.71 392,-209 392,-209 392,-209 80.47,-209 80.47,-209 80.47,-209 80.47,-281.94 80.47,-281.94"/>
<polygon fill="black" stroke="black" points="76.97,-281.94 80.47,-291.94 83.97,-281.94 76.97,-281.94"/>
</g>
<!-- AdminService  -->
<g id="node9" class="node">
<title>AdminService </title>
<polygon fill="#fb8072" stroke="black" points="3436.37,-252 3335.63,-252 3335.63,-216 3436.37,-216 3436.37,-252"/>
<text text-anchor="middle" x="3386" y="-229.8" font-family="Times,serif" font-size="14.00">AdminService </text>
</g>
<!-- AuthModule&#45;&gt;AdminService  -->
<g id="edge8" class="edge">
<title>AuthModule&#45;&gt;AdminService </title>
<path fill="none" stroke="black" stroke-dasharray="5,2" d="M435.77,-156C805.02,-156 3386,-156 3386,-156 3386,-156 3386,-205.91 3386,-205.91"/>
<polygon fill="black" stroke="black" points="3382.5,-205.91 3386,-215.91 3389.5,-205.91 3382.5,-205.91"/>
</g>
<!-- ApiKeyService  -->
<g id="node10" class="node">
<title>ApiKeyService </title>
<polygon fill="#fb8072" stroke="black" points="3317.8,-252 3212.2,-252 3212.2,-216 3317.8,-216 3317.8,-252"/>
<text text-anchor="middle" x="3265" y="-229.8" font-family="Times,serif" font-size="14.00">ApiKeyService </text>
</g>
<!-- AuthModule&#45;&gt;ApiKeyService  -->
<g id="edge9" class="edge">
<title>AuthModule&#45;&gt;ApiKeyService </title>
<path fill="none" stroke="black" stroke-dasharray="5,2" d="M435.69,-158C796.14,-158 3265,-158 3265,-158 3265,-158 3265,-205.99 3265,-205.99"/>
<polygon fill="black" stroke="black" points="3261.5,-205.99 3265,-215.99 3268.5,-205.99 3261.5,-205.99"/>
</g>
<!-- AuthResponseHelper  -->
<g id="node11" class="node">
<title>AuthResponseHelper </title>
<polygon fill="#fb8072" stroke="black" points="3193.74,-252 3054.26,-252 3054.26,-216 3193.74,-216 3193.74,-252"/>
<text text-anchor="middle" x="3124" y="-229.8" font-family="Times,serif" font-size="14.00">AuthResponseHelper </text>
</g>
<!-- AuthModule&#45;&gt;AuthResponseHelper  -->
<g id="edge10" class="edge">
<title>AuthModule&#45;&gt;AuthResponseHelper </title>
<path fill="none" stroke="black" stroke-dasharray="5,2" d="M435.74,-159C786.19,-159 3124,-159 3124,-159 3124,-159 3124,-205.84 3124,-205.84"/>
<polygon fill="black" stroke="black" points="3120.5,-205.84 3124,-215.84 3127.5,-205.84 3120.5,-205.84"/>
</g>
<!-- AuthService  -->
<g id="node12" class="node">
<title>AuthService </title>
<polygon fill="#fb8072" stroke="black" points="3036.98,-252 2947.02,-252 2947.02,-216 3036.98,-216 3036.98,-252"/>
<text text-anchor="middle" x="2992" y="-229.8" font-family="Times,serif" font-size="14.00">AuthService </text>
</g>
<!-- AuthModule&#45;&gt;AuthService  -->
<g id="edge11" class="edge">
<title>AuthModule&#45;&gt;AuthService </title>
<path fill="none" stroke="black" stroke-dasharray="5,2" d="M435.77,-161C776.53,-161 2992,-161 2992,-161 2992,-161 2992,-205.96 2992,-205.96"/>
<polygon fill="black" stroke="black" points="2988.5,-205.96 2992,-215.96 2995.5,-205.96 2988.5,-205.96"/>
</g>
<!-- EmailOtpService  -->
<g id="node13" class="node">
<title>EmailOtpService </title>
<polygon fill="#fb8072" stroke="black" points="2928.91,-252 2813.09,-252 2813.09,-216 2928.91,-216 2928.91,-252"/>
<text text-anchor="middle" x="2871" y="-229.8" font-family="Times,serif" font-size="14.00">EmailOtpService </text>
</g>
<!-- AuthModule&#45;&gt;EmailOtpService  -->
<g id="edge12" class="edge">
<title>AuthModule&#45;&gt;EmailOtpService </title>
<path fill="none" stroke="black" stroke-dasharray="5,2" d="M435.55,-162C766.44,-162 2871,-162 2871,-162 2871,-162 2871,-205.83 2871,-205.83"/>
<polygon fill="black" stroke="black" points="2867.5,-205.83 2871,-215.83 2874.5,-205.83 2867.5,-205.83"/>
</g>
<!-- MagicLinkService  -->
<g id="node14" class="node">
<title>MagicLinkService </title>
<polygon fill="#fb8072" stroke="black" points="2794.69,-252 2671.31,-252 2671.31,-216 2794.69,-216 2794.69,-252"/>
<text text-anchor="middle" x="2733" y="-229.8" font-family="Times,serif" font-size="14.00">MagicLinkService </text>
</g>
<!-- AuthModule&#45;&gt;MagicLinkService  -->
<g id="edge13" class="edge">
<title>AuthModule&#45;&gt;MagicLinkService </title>
<path fill="none" stroke="black" stroke-dasharray="5,2" d="M435.65,-164C756.12,-164 2733,-164 2733,-164 2733,-164 2733,-205.97 2733,-205.97"/>
<polygon fill="black" stroke="black" points="2729.5,-205.97 2733,-215.97 2736.5,-205.97 2729.5,-205.97"/>
</g>
<!-- MultiSessionService  -->
<g id="node15" class="node">
<title>MultiSessionService </title>
<polygon fill="#fb8072" stroke="black" points="2652.87,-252 2517.13,-252 2517.13,-216 2652.87,-216 2652.87,-252"/>
<text text-anchor="middle" x="2585" y="-229.8" font-family="Times,serif" font-size="14.00">MultiSessionService </text>
</g>
<!-- AuthModule&#45;&gt;MultiSessionService  -->
<g id="edge14" class="edge">
<title>AuthModule&#45;&gt;MultiSessionService </title>
<path fill="none" stroke="black" stroke-dasharray="5,2" d="M435.81,-166C744.89,-166 2585,-166 2585,-166 2585,-166 2585,-205.78 2585,-205.78"/>
<polygon fill="black" stroke="black" points="2581.5,-205.78 2585,-215.78 2588.5,-205.78 2581.5,-205.78"/>
</g>
<!-- OrgsService  -->
<g id="node16" class="node">
<title>OrgsService </title>
<polygon fill="#fb8072" stroke="black" points="2499.19,-252 2410.81,-252 2410.81,-216 2499.19,-216 2499.19,-252"/>
<text text-anchor="middle" x="2455" y="-229.8" font-family="Times,serif" font-size="14.00">OrgsService </text>
</g>
<!-- AuthModule&#45;&gt;OrgsService  -->
<g id="edge15" class="edge">
<title>AuthModule&#45;&gt;OrgsService </title>
<path fill="none" stroke="black" stroke-dasharray="5,2" d="M435.56,-167C733.18,-167 2455,-167 2455,-167 2455,-167 2455,-205.69 2455,-205.69"/>
<polygon fill="black" stroke="black" points="2451.5,-205.69 2455,-215.69 2458.5,-205.69 2451.5,-205.69"/>
</g>
<!-- PasskeyService  -->
<g id="node17" class="node">
<title>PasskeyService </title>
<polygon fill="#fb8072" stroke="black" points="2392.08,-252 2285.92,-252 2285.92,-216 2392.08,-216 2392.08,-252"/>
<text text-anchor="middle" x="2339" y="-229.8" font-family="Times,serif" font-size="14.00">PasskeyService </text>
</g>
<!-- AuthModule&#45;&gt;PasskeyService  -->
<g id="edge16" class="edge">
<title>AuthModule&#45;&gt;PasskeyService </title>
<path fill="none" stroke="black" stroke-dasharray="5,2" d="M435.86,-169C724.4,-169 2339,-169 2339,-169 2339,-169 2339,-205.89 2339,-205.89"/>
<polygon fill="black" stroke="black" points="2335.5,-205.89 2339,-215.89 2342.5,-205.89 2335.5,-205.89"/>
</g>
<!-- TwoFactorService  -->
<g id="node18" class="node">
<title>TwoFactorService </title>
<polygon fill="#fb8072" stroke="black" points="2267.4,-252 2144.6,-252 2144.6,-216 2267.4,-216 2267.4,-252"/>
<text text-anchor="middle" x="2206" y="-229.8" font-family="Times,serif" font-size="14.00">TwoFactorService </text>
</g>
<!-- AuthModule&#45;&gt;TwoFactorService  -->
<g id="edge17" class="edge">
<title>AuthModule&#45;&gt;TwoFactorService </title>
<path fill="none" stroke="black" stroke-dasharray="5,2" d="M435.94,-170C712.97,-170 2206,-170 2206,-170 2206,-170 2206,-205.83 2206,-205.83"/>
<polygon fill="black" stroke="black" points="2202.5,-205.83 2206,-215.83 2209.5,-205.83 2202.5,-205.83"/>
</g>
<!-- UsernameService  -->
<g id="node19" class="node">
<title>UsernameService </title>
<polygon fill="#fb8072" stroke="black" points="3684.22,-252 3565.78,-252 3565.78,-216 3684.22,-216 3684.22,-252"/>
<text text-anchor="middle" x="3625" y="-229.8" font-family="Times,serif" font-size="14.00">UsernameService </text>
</g>
<!-- AuthModule&#45;&gt;UsernameService  -->
<g id="edge18" class="edge">
<title>AuthModule&#45;&gt;UsernameService </title>
<path fill="none" stroke="black" stroke-dasharray="5,2" d="M435.56,-153C820.37,-153 3625,-153 3625,-153 3625,-153 3625,-205.62 3625,-205.62"/>
<polygon fill="black" stroke="black" points="3621.5,-205.62 3625,-215.62 3628.5,-205.62 3621.5,-205.62"/>
</g>
<!-- UsersService  -->
<g id="node20" class="node">
<title>UsersService </title>
<polygon fill="#fb8072" stroke="black" points="3547.85,-252 3454.15,-252 3454.15,-216 3547.85,-216 3547.85,-252"/>
<text text-anchor="middle" x="3501" y="-229.8" font-family="Times,serif" font-size="14.00">UsersService </text>
</g>
<!-- AuthModule&#45;&gt;UsersService  -->
<g id="edge19" class="edge">
<title>AuthModule&#45;&gt;UsersService </title>
<path fill="none" stroke="black" stroke-dasharray="5,2" d="M435.65,-155C812.42,-155 3501,-155 3501,-155 3501,-155 3501,-205.68 3501,-205.68"/>
<polygon fill="black" stroke="black" points="3497.5,-205.68 3501,-215.68 3504.5,-205.68 3497.5,-205.68"/>
</g>
<!-- BunnyModule -->
<g id="node2" class="node">
<title>BunnyModule</title>
<polygon fill="#8dd3c7" stroke="black" points="307.39,-252 304.39,-256 283.39,-256 280.39,-252 210.61,-252 210.61,-216 307.39,-216 307.39,-252"/>
<text text-anchor="middle" x="259" y="-229.8" font-family="Times,serif" font-size="14.00">BunnyModule</text>
</g>
<!-- BunnyModule&#45;&gt;AppModule -->
<g id="edge2" class="edge">
<title>BunnyModule&#45;&gt;AppModule</title>
<path fill="none" stroke="black" d="M259,-252.15C259,-275.76 259,-314 259,-314 259,-314 128.75,-314 128.75,-314"/>
<polygon fill="black" stroke="black" points="128.75,-310.5 118.75,-314 128.75,-317.5 128.75,-310.5"/>
</g>
<!-- BunnyStorageService  -->
<g id="node31" class="node">
<title>BunnyStorageService </title>
<polygon fill="#fb8072" stroke="black" points="831.58,-328 690.42,-328 690.42,-292 831.58,-292 831.58,-328"/>
<text text-anchor="middle" x="761" y="-305.8" font-family="Times,serif" font-size="14.00">BunnyStorageService </text>
</g>
<!-- BunnyModule&#45;&gt;BunnyStorageService  -->
<g id="edge32" class="edge">
<title>BunnyModule&#45;&gt;BunnyStorageService </title>
<path fill="none" stroke="black" stroke-dasharray="5,2" d="M234.78,-252.15C234.78,-265.74 234.78,-282 234.78,-282 234.78,-282 745.16,-282 745.16,-282 745.16,-282 745.16,-282.98 745.16,-282.98"/>
<polygon fill="black" stroke="black" points="741.66,-281.79 745.16,-291.79 748.66,-281.79 741.66,-281.79"/>
</g>
<!-- ConfigModule -->
<g id="node3" class="node">
<title>ConfigModule</title>
<polygon fill="#8dd3c7" stroke="black" points="319.44,-187 316.44,-191 295.44,-191 292.44,-187 220.56,-187 220.56,-151 319.44,-151 319.44,-187"/>
<text text-anchor="middle" x="270" y="-164.8" font-family="Times,serif" font-size="14.00">ConfigModule</text>
</g>
<!-- ConfigModule&#45;&gt;BunnyModule -->
<g id="edge31" class="edge">
<title>ConfigModule&#45;&gt;BunnyModule</title>
<path fill="none" stroke="black" d="M264.11,-187.11C264.11,-187.11 264.11,-205.99 264.11,-205.99"/>
<polygon fill="black" stroke="black" points="260.61,-205.99 264.11,-215.99 267.61,-205.99 260.61,-205.99"/>
</g>
<!-- DatabaseModule -->
<g id="node4" class="node">
<title>DatabaseModule</title>
<polygon fill="#8dd3c7" stroke="black" points="436.35,-252 433.35,-256 412.35,-256 409.35,-252 325.65,-252 325.65,-216 436.35,-216 436.35,-252"/>
<text text-anchor="middle" x="381" y="-229.8" font-family="Times,serif" font-size="14.00">DatabaseModule</text>
</g>
<!-- ConfigModule&#45;&gt;DatabaseModule -->
<g id="edge36" class="edge">
<title>ConfigModule&#45;&gt;DatabaseModule</title>
<path fill="none" stroke="black" d="M316.27,-187.11C316.27,-206.34 316.27,-234 316.27,-234 316.27,-234 317.2,-234 317.2,-234"/>
<polygon fill="black" stroke="black" points="315.55,-237.5 325.55,-234 315.55,-230.5 315.55,-237.5"/>
</g>
<!-- HealthModule -->
<g id="node5" class="node">
<title>HealthModule</title>
<polygon fill="#8dd3c7" stroke="black" points="192.37,-252 189.37,-256 168.37,-256 165.37,-252 95.63,-252 95.63,-216 192.37,-216 192.37,-252"/>
<text text-anchor="middle" x="144" y="-229.8" font-family="Times,serif" font-size="14.00">HealthModule</text>
</g>
<!-- ConfigModule&#45;&gt;HealthModule -->
<g id="edge39" class="edge">
<title>ConfigModule&#45;&gt;HealthModule</title>
<path fill="none" stroke="black" d="M220.63,-175C197.12,-175 174.06,-175 174.06,-175 174.06,-175 174.06,-205.98 174.06,-205.98"/>
<polygon fill="black" stroke="black" points="170.56,-205.98 174.06,-215.98 177.56,-205.98 170.56,-205.98"/>
</g>
<!-- ConfigModule&#45;&gt;AppModule -->
<g id="edge3" class="edge">
<title>ConfigModule&#45;&gt;AppModule</title>
<path fill="none" stroke="black" d="M220.73,-163C160.18,-163 65.37,-163 65.37,-163 65.37,-163 65.37,-281.97 65.37,-281.97"/>
<polygon fill="black" stroke="black" points="61.87,-281.97 65.37,-291.97 68.87,-281.97 61.87,-281.97"/>
</g>
<!-- AppConfigService  -->
<g id="node33" class="node">
<title>AppConfigService </title>
<polygon fill="#fb8072" stroke="black" points="4038.47,-252 3913.53,-252 3913.53,-216 4038.47,-216 4038.47,-252"/>
<text text-anchor="middle" x="3976" y="-229.8" font-family="Times,serif" font-size="14.00">AppConfigService </text>
</g>
<!-- ConfigModule&#45;&gt;AppConfigService  -->
<g id="edge34" class="edge">
<title>ConfigModule&#45;&gt;AppConfigService </title>
<path fill="none" stroke="black" stroke-dasharray="5,2" d="M310.39,-187.06C310.39,-191.49 310.39,-195 310.39,-195 310.39,-195 3976,-195 3976,-195 3976,-195 3976,-205.87 3976,-205.87"/>
<polygon fill="black" stroke="black" points="3972.5,-205.87 3976,-215.87 3979.5,-205.87 3972.5,-205.87"/>
</g>
<!-- DatabaseModule&#45;&gt;AppModule -->
<g id="edge4" class="edge">
<title>DatabaseModule&#45;&gt;AppModule</title>
<path fill="none" stroke="black" d="M408.71,-252.03C408.71,-277.51 408.71,-321 408.71,-321 408.71,-321 128.68,-321 128.68,-321"/>
<polygon fill="black" stroke="black" points="128.68,-317.5 118.68,-321 128.68,-324.5 128.68,-317.5"/>
</g>
<!-- DatabaseService  -->
<g id="node35" class="node">
<title>DatabaseService </title>
<polygon fill="#fb8072" stroke="black" points="1158.28,-328 1045.72,-328 1045.72,-292 1158.28,-292 1158.28,-328"/>
<text text-anchor="middle" x="1102" y="-305.8" font-family="Times,serif" font-size="14.00">DatabaseService </text>
</g>
<!-- DatabaseModule&#45;&gt;DatabaseService  -->
<g id="edge37" class="edge">
<title>DatabaseModule&#45;&gt;DatabaseService </title>
<path fill="none" stroke="black" stroke-dasharray="5,2" d="M353.29,-252.21C353.29,-257.55 353.29,-262 353.29,-262 353.29,-262 1090.79,-262 1090.79,-262 1090.79,-262 1090.79,-281.85 1090.79,-281.85"/>
<polygon fill="black" stroke="black" points="1087.29,-281.85 1090.79,-291.85 1094.29,-281.85 1087.29,-281.85"/>
</g>
<!-- HealthModule&#45;&gt;AppModule -->
<g id="edge5" class="edge">
<title>HealthModule&#45;&gt;AppModule</title>
<path fill="none" stroke="black" d="M107.2,-252.01C107.2,-252.01 107.2,-281.85 107.2,-281.85"/>
<polygon fill="black" stroke="black" points="103.7,-281.85 107.2,-291.85 110.7,-281.85 103.7,-281.85"/>
</g>
<!-- AppService -->
<g id="node7" class="node">
<title>AppService</title>
<ellipse fill="#fdb462" stroke="black" cx="81" cy="-104" rx="56.74" ry="18"/>
<text text-anchor="middle" x="81" y="-99.8" font-family="Times,serif" font-size="14.00">AppService</text>
</g>
<!-- AppService&#45;&gt;AppModule -->
<g id="edge6" class="edge">
<title>AppService&#45;&gt;AppModule</title>
<path fill="none" stroke="black" d="M50.27,-119.15C50.27,-119.15 50.27,-281.93 50.27,-281.93"/>
<polygon fill="black" stroke="black" points="46.77,-281.93 50.27,-291.93 53.77,-281.93 46.77,-281.93"/>
</g>
<!-- AuthService -->
<g id="node8" class="node">
<title>AuthService</title>
<ellipse fill="#fdb462" stroke="black" cx="215" cy="-104" rx="59.11" ry="18"/>
<text text-anchor="middle" x="215" y="-99.8" font-family="Times,serif" font-size="14.00">AuthService</text>
</g>
<!-- AuthService&#45;&gt;AuthModule -->
<g id="edge22" class="edge">
<title>AuthService&#45;&gt;AuthModule</title>
<path fill="none" stroke="black" d="M274.43,-104C325.85,-104 392,-104 392,-104 392,-104 392,-140.89 392,-140.89"/>
<polygon fill="black" stroke="black" points="388.5,-140.89 392,-150.89 395.5,-140.89 388.5,-140.89"/>
</g>
<!-- AuthService&#45;&gt;AppModule -->
<g id="edge7" class="edge">
<title>AuthService&#45;&gt;AppModule</title>
<path fill="none" stroke="black" d="M201.5,-121.66C201.5,-171.05 201.5,-307 201.5,-307 201.5,-307 128.8,-307 128.8,-307"/>
<polygon fill="black" stroke="black" points="128.8,-303.5 118.8,-307 128.8,-310.5 128.8,-303.5"/>
</g>
<!-- AdminService -->
<g id="node21" class="node">
<title>AdminService</title>
<ellipse fill="#fdb462" stroke="black" cx="1736" cy="-234" rx="66.63" ry="18"/>
<text text-anchor="middle" x="1736" y="-229.8" font-family="Times,serif" font-size="14.00">AdminService</text>
</g>
<!-- AdminService&#45;&gt;AuthModule -->
<g id="edge20" class="edge">
<title>AdminService&#45;&gt;AuthModule</title>
<path fill="none" stroke="black" d="M1736,-215.98C1736,-198.63 1736,-175 1736,-175 1736,-175 445.57,-175 445.57,-175"/>
<polygon fill="black" stroke="black" points="445.57,-171.5 435.57,-175 445.57,-178.5 445.57,-171.5"/>
</g>
<!-- ApiKeyService -->
<g id="node22" class="node">
<title>ApiKeyService</title>
<ellipse fill="#fdb462" stroke="black" cx="1581" cy="-234" rx="70.62" ry="18"/>
<text text-anchor="middle" x="1581" y="-229.8" font-family="Times,serif" font-size="14.00">ApiKeyService</text>
</g>
<!-- ApiKeyService&#45;&gt;AuthModule -->
<g id="edge21" class="edge">
<title>ApiKeyService&#45;&gt;AuthModule</title>
<path fill="none" stroke="black" d="M1581,-215.96C1581,-199.27 1581,-177 1581,-177 1581,-177 445.73,-177 445.73,-177"/>
<polygon fill="black" stroke="black" points="445.73,-173.5 435.73,-177 445.73,-180.5 445.73,-173.5"/>
</g>
<!-- EmailOtpService -->
<g id="node23" class="node">
<title>EmailOtpService</title>
<ellipse fill="#fdb462" stroke="black" cx="1415" cy="-234" rx="77.58" ry="18"/>
<text text-anchor="middle" x="1415" y="-229.8" font-family="Times,serif" font-size="14.00">EmailOtpService</text>
</g>
<!-- EmailOtpService&#45;&gt;AuthModule -->
<g id="edge23" class="edge">
<title>EmailOtpService&#45;&gt;AuthModule</title>
<path fill="none" stroke="black" d="M1415,-215.97C1415,-199.6 1415,-178 1415,-178 1415,-178 445.63,-178 445.63,-178"/>
<polygon fill="black" stroke="black" points="445.63,-174.5 435.63,-178 445.63,-181.5 445.63,-174.5"/>
</g>
<!-- MagicLinkService -->
<g id="node24" class="node">
<title>MagicLinkService</title>
<ellipse fill="#fdb462" stroke="black" cx="1237" cy="-234" rx="82.8" ry="18"/>
<text text-anchor="middle" x="1237" y="-229.8" font-family="Times,serif" font-size="14.00">MagicLinkService</text>
</g>
<!-- MagicLinkService&#45;&gt;AuthModule -->
<g id="edge24" class="edge">
<title>MagicLinkService&#45;&gt;AuthModule</title>
<path fill="none" stroke="black" d="M1237,-215.72C1237,-200.05 1237,-180 1237,-180 1237,-180 445.65,-180 445.65,-180"/>
<polygon fill="black" stroke="black" points="445.65,-176.5 435.65,-180 445.65,-183.5 445.65,-176.5"/>
</g>
<!-- MultiSessionService -->
<g id="node25" class="node">
<title>MultiSessionService</title>
<ellipse fill="#fdb462" stroke="black" cx="1045" cy="-234" rx="90.92" ry="18"/>
<text text-anchor="middle" x="1045" y="-229.8" font-family="Times,serif" font-size="14.00">MultiSessionService</text>
</g>
<!-- MultiSessionService&#45;&gt;AuthModule -->
<g id="edge25" class="edge">
<title>MultiSessionService&#45;&gt;AuthModule</title>
<path fill="none" stroke="black" d="M1045,-215.76C1045,-200.43 1045,-181 1045,-181 1045,-181 445.6,-181 445.6,-181"/>
<polygon fill="black" stroke="black" points="445.6,-177.5 435.6,-181 445.6,-184.5 445.6,-177.5"/>
</g>
<!-- OrgsService -->
<g id="node26" class="node">
<title>OrgsService</title>
<ellipse fill="#fdb462" stroke="black" cx="877" cy="-234" rx="58.53" ry="18"/>
<text text-anchor="middle" x="877" y="-229.8" font-family="Times,serif" font-size="14.00">OrgsService</text>
</g>
<!-- OrgsService&#45;&gt;AuthModule -->
<g id="edge26" class="edge">
<title>OrgsService&#45;&gt;AuthModule</title>
<path fill="none" stroke="black" d="M877,-215.88C877,-201.22 877,-183 877,-183 877,-183 445.9,-183 445.9,-183"/>
<polygon fill="black" stroke="black" points="445.9,-179.5 435.9,-183 445.9,-186.5 445.9,-179.5"/>
</g>
<!-- PasskeyService -->
<g id="node27" class="node">
<title>PasskeyService</title>
<ellipse fill="#fdb462" stroke="black" cx="729" cy="-234" rx="71.2" ry="18"/>
<text text-anchor="middle" x="729" y="-229.8" font-family="Times,serif" font-size="14.00">PasskeyService</text>
</g>
<!-- PasskeyService&#45;&gt;AuthModule -->
<g id="edge27" class="edge">
<title>PasskeyService&#45;&gt;AuthModule</title>
<path fill="none" stroke="black" d="M729,-215.95C729,-201.63 729,-184 729,-184 729,-184 445.71,-184 445.71,-184"/>
<polygon fill="black" stroke="black" points="445.71,-180.5 435.71,-184 445.71,-187.5 445.71,-180.5"/>
</g>
<!-- TwoFactorService -->
<g id="node28" class="node">
<title>TwoFactorService</title>
<ellipse fill="#fdb462" stroke="black" cx="558" cy="-234" rx="82.22" ry="18"/>
<text text-anchor="middle" x="558" y="-229.8" font-family="Times,serif" font-size="14.00">TwoFactorService</text>
</g>
<!-- TwoFactorService&#45;&gt;AuthModule -->
<g id="edge28" class="edge">
<title>TwoFactorService&#45;&gt;AuthModule</title>
<path fill="none" stroke="black" d="M558,-215.85C558,-202.26 558,-186 558,-186 558,-186 445.61,-186 445.61,-186"/>
<polygon fill="black" stroke="black" points="445.61,-182.5 435.61,-186 445.61,-189.5 445.61,-182.5"/>
</g>
<!-- UsernameService -->
<g id="node29" class="node">
<title>UsernameService</title>
<ellipse fill="#fdb462" stroke="black" cx="2042" cy="-234" rx="79.27" ry="18"/>
<text text-anchor="middle" x="2042" y="-229.8" font-family="Times,serif" font-size="14.00">UsernameService</text>
</g>
<!-- UsernameService&#45;&gt;AuthModule -->
<g id="edge29" class="edge">
<title>UsernameService&#45;&gt;AuthModule</title>
<path fill="none" stroke="black" d="M2042,-215.73C2042,-197.44 2042,-172 2042,-172 2042,-172 445.71,-172 445.71,-172"/>
<polygon fill="black" stroke="black" points="445.71,-168.5 435.71,-172 445.71,-175.5 445.71,-168.5"/>
</g>
<!-- UsersService -->
<g id="node30" class="node">
<title>UsersService</title>
<ellipse fill="#fdb462" stroke="black" cx="1883" cy="-234" rx="61.95" ry="18"/>
<text text-anchor="middle" x="1883" y="-229.8" font-family="Times,serif" font-size="14.00">UsersService</text>
</g>
<!-- UsersService&#45;&gt;AuthModule -->
<g id="edge30" class="edge">
<title>UsersService&#45;&gt;AuthModule</title>
<path fill="none" stroke="black" d="M1883,-215.7C1883,-197.73 1883,-173 1883,-173 1883,-173 445.82,-173 445.82,-173"/>
<polygon fill="black" stroke="black" points="445.82,-169.5 435.82,-173 445.82,-176.5 445.82,-169.5"/>
</g>
<!-- BunnyStorageService -->
<g id="node32" class="node">
<title>BunnyStorageService</title>
<ellipse fill="#fdb462" stroke="black" cx="571" cy="-310" rx="95.49" ry="18"/>
<text text-anchor="middle" x="571" y="-305.8" font-family="Times,serif" font-size="14.00">BunnyStorageService</text>
</g>
<!-- BunnyStorageService&#45;&gt;BunnyModule -->
<g id="edge33" class="edge">
<title>BunnyStorageService&#45;&gt;BunnyModule</title>
<path fill="none" stroke="black" d="M491.6,-300C406.42,-300 283.22,-300 283.22,-300 283.22,-300 283.22,-262.03 283.22,-262.03"/>
<polygon fill="black" stroke="black" points="286.72,-262.03 283.22,-252.03 279.72,-262.03 286.72,-262.03"/>
</g>
<!-- AppConfigService -->
<g id="node34" class="node">
<title>AppConfigService</title>
<ellipse fill="#fdb462" stroke="black" cx="3807" cy="-234" rx="83.39" ry="18"/>
<text text-anchor="middle" x="3807" y="-229.8" font-family="Times,serif" font-size="14.00">AppConfigService</text>
</g>
<!-- AppConfigService&#45;&gt;ConfigModule -->
<g id="edge35" class="edge">
<title>AppConfigService&#45;&gt;ConfigModule</title>
<path fill="none" stroke="black" d="M3807,-215.76C3807,-208.57 3807,-202 3807,-202 3807,-202 313.33,-202 313.33,-202 313.33,-202 313.33,-197.04 313.33,-197.04"/>
<polygon fill="black" stroke="black" points="316.83,-197.04 313.33,-187.04 309.83,-197.04 316.83,-197.04"/>
</g>
<!-- DatabaseService -->
<g id="node36" class="node">
<title>DatabaseService</title>
<ellipse fill="#fdb462" stroke="black" cx="947" cy="-310" rx="75.26" ry="18"/>
<text text-anchor="middle" x="947" y="-305.8" font-family="Times,serif" font-size="14.00">DatabaseService</text>
</g>
<!-- DatabaseService&#45;&gt;DatabaseModule -->
<g id="edge38" class="edge">
<title>DatabaseService&#45;&gt;DatabaseModule</title>
<path fill="none" stroke="black" d="M903.69,-294.98C903.69,-284.36 903.69,-272 903.69,-272 903.69,-272 381,-272 381,-272 381,-272 381,-262.11 381,-262.11"/>
<polygon fill="black" stroke="black" points="384.5,-262.11 381,-252.11 377.5,-262.11 384.5,-262.11"/>
</g>
</g>
</svg>
