<?xml version="1.0" encoding="UTF-8" standalone="no"?>
<!DOCTYPE svg PUBLIC "-//W3C//DTD SVG 1.1//EN"
 "http://www.w3.org/Graphics/SVG/1.1/DTD/svg11.dtd">
<!-- Generated by graphviz version 2.47.0 (20210316.0004)
 -->
<!-- Title: dependencies Pages: 1 -->
<svg width="5586pt" height="428pt"
 viewBox="0.00 0.00 5586.00 428.00" xmlns="http://www.w3.org/2000/svg" xmlns:xlink="http://www.w3.org/1999/xlink">
<g id="graph0" class="graph" transform="scale(1 1) rotate(0) translate(4 424)">
<title>dependencies</title>
<polygon fill="white" stroke="transparent" points="-4,4 -4,-424 5582,-424 5582,4 -4,4"/>
<text text-anchor="start" x="2768.01" y="-42.4" font-family="Times-12" font-weight="bold" font-size="14.00">Legend</text>
<polygon fill="#ffffb3" stroke="transparent" points="2555,-10 2555,-30 2575,-30 2575,-10 2555,-10"/>
<text text-anchor="start" x="2578.63" y="-15.4" font-family="Times-12" font-size="14.00"> &#160;Declarations</text>
<polygon fill="#8dd3c7" stroke="transparent" points="2668,-10 2668,-30 2688,-30 2688,-10 2668,-10"/>
<text text-anchor="start" x="2691.73" y="-15.4" font-family="Times-12" font-size="14.00"> &#160;Module</text>
<polygon fill="#80b1d3" stroke="transparent" points="2754,-10 2754,-30 2774,-30 2774,-10 2754,-10"/>
<text text-anchor="start" x="2777.78" y="-15.4" font-family="Times-12" font-size="14.00"> &#160;Bootstrap</text>
<polygon fill="#fdb462" stroke="transparent" points="2851,-10 2851,-30 2871,-30 2871,-10 2851,-10"/>
<text text-anchor="start" x="2874.67" y="-15.4" font-family="Times-12" font-size="14.00"> &#160;Providers</text>
<polygon fill="#fb8072" stroke="transparent" points="2947,-10 2947,-30 2967,-30 2967,-10 2947,-10"/>
<text text-anchor="start" x="2970.73" y="-15.4" font-family="Times-12" font-size="14.00"> &#160;Exports</text>
<g id="clust1" class="cluster">
<title>cluster_AppModule</title>
<polygon fill="none" stroke="black" stroke-dasharray="1,5" points="8,-70 8,-336 452,-336 452,-70 8,-70"/>
</g>
<g id="clust3" class="cluster">
<title>cluster_AppModule_imports</title>
<polygon fill="none" stroke="black" points="88,-143 88,-260 444,-260 444,-143 88,-143"/>
</g>
<g id="clust6" class="cluster">
<title>cluster_AppModule_providers</title>
<polygon fill="none" stroke="black" points="16,-78 16,-130 282,-130 282,-78 16,-78"/>
</g>
<g id="clust7" class="cluster">
<title>cluster_AuthModule</title>
<polygon fill="none" stroke="black" stroke-dasharray="1,5" points="1974,-200 1974,-268 5216,-268 5216,-200 1974,-200"/>
</g>
<g id="clust10" class="cluster">
<title>cluster_AuthModule_exports</title>
<polygon fill="none" stroke="black" points="3652,-208 3652,-260 5208,-260 5208,-208 3652,-208"/>
</g>
<g id="clust12" class="cluster">
<title>cluster_AuthModule_providers</title>
<polygon fill="none" stroke="black" points="1982,-208 1982,-260 3644,-260 3644,-208 1982,-208"/>
</g>
<g id="clust13" class="cluster">
<title>cluster_BunnyModule</title>
<polygon fill="none" stroke="black" stroke-dasharray="1,5" points="460,-276 460,-344 848,-344 848,-276 460,-276"/>
</g>
<g id="clust16" class="cluster">
<title>cluster_BunnyModule_exports</title>
<polygon fill="none" stroke="black" points="682,-284 682,-336 840,-336 840,-284 682,-284"/>
</g>
<g id="clust18" class="cluster">
<title>cluster_BunnyModule_providers</title>
<polygon fill="none" stroke="black" points="468,-284 468,-336 674,-336 674,-284 468,-284"/>
</g>
<g id="clust19" class="cluster">
<title>cluster_CacheModule</title>
<polygon fill="none" stroke="black" stroke-dasharray="1,5" points="1456,-200 1456,-412 1616,-412 1616,-200 1456,-200"/>
</g>
<g id="clust22" class="cluster">
<title>cluster_CacheModule_exports</title>
<polygon fill="none" stroke="black" points="1472,-352 1472,-404 1584,-404 1584,-352 1472,-352"/>
</g>
<g id="clust24" class="cluster">
<title>cluster_CacheModule_providers</title>
<polygon fill="none" stroke="black" points="1464,-208 1464,-260 1608,-260 1608,-208 1464,-208"/>
</g>
<g id="clust25" class="cluster">
<title>cluster_ConfigModule</title>
<polygon fill="none" stroke="black" stroke-dasharray="1,5" points="5224,-200 5224,-268 5570,-268 5570,-200 5224,-200"/>
</g>
<g id="clust28" class="cluster">
<title>cluster_ConfigModule_exports</title>
<polygon fill="none" stroke="black" points="5422,-208 5422,-260 5562,-260 5562,-208 5422,-208"/>
</g>
<g id="clust30" class="cluster">
<title>cluster_ConfigModule_providers</title>
<polygon fill="none" stroke="black" points="5232,-208 5232,-260 5414,-260 5414,-208 5232,-208"/>
</g>
<g id="clust31" class="cluster">
<title>cluster_DatabaseModule</title>
<polygon fill="none" stroke="black" stroke-dasharray="1,5" points="856,-276 856,-344 1448,-344 1448,-276 856,-276"/>
</g>
<g id="clust34" class="cluster">
<title>cluster_DatabaseModule_exports</title>
<polygon fill="none" stroke="black" points="1192,-284 1192,-336 1440,-336 1440,-284 1192,-284"/>
</g>
<g id="clust36" class="cluster">
<title>cluster_DatabaseModule_providers</title>
<polygon fill="none" stroke="black" points="864,-284 864,-336 1184,-336 1184,-284 864,-284"/>
</g>
<g id="clust43" class="cluster">
<title>cluster_PubSubModule</title>
<polygon fill="none" stroke="black" stroke-dasharray="1,5" points="1624,-200 1624,-412 1796,-412 1796,-200 1624,-200"/>
</g>
<g id="clust46" class="cluster">
<title>cluster_PubSubModule_exports</title>
<polygon fill="none" stroke="black" points="1640,-352 1640,-404 1762,-404 1762,-352 1640,-352"/>
</g>
<g id="clust48" class="cluster">
<title>cluster_PubSubModule_providers</title>
<polygon fill="none" stroke="black" points="1632,-208 1632,-260 1788,-260 1788,-208 1632,-208"/>
</g>
<g id="clust49" class="cluster">
<title>cluster_QueueModule</title>
<polygon fill="none" stroke="black" stroke-dasharray="1,5" points="1804,-200 1804,-412 1966,-412 1966,-200 1804,-200"/>
</g>
<g id="clust52" class="cluster">
<title>cluster_QueueModule_exports</title>
<polygon fill="none" stroke="black" points="1820,-352 1820,-404 1934,-404 1934,-352 1820,-352"/>
</g>
<g id="clust54" class="cluster">
<title>cluster_QueueModule_providers</title>
<polygon fill="none" stroke="black" points="1812,-208 1812,-260 1958,-260 1958,-208 1812,-208"/>
</g>
<!-- AuthModule -->
<g id="node1" class="node">
<title>AuthModule</title>
<polygon fill="#8dd3c7" stroke="black" points="435.55,-187 432.55,-191 411.55,-191 408.55,-187 348.45,-187 348.45,-151 435.55,-151 435.55,-187"/>
<text text-anchor="middle" x="392" y="-164.8" font-family="Times,serif" font-size="14.00">AuthModule</text>
</g>
<!-- AppModule -->
<g id="node6" class="node">
<title>AppModule</title>
<polygon fill="#8dd3c7" stroke="black" points="118.66,-328 115.66,-332 94.66,-332 91.66,-328 35.34,-328 35.34,-292 118.66,-292 118.66,-328"/>
<text text-anchor="middle" x="77" y="-305.8" font-family="Times,serif" font-size="14.00">AppModule</text>
</g>
<!-- AuthModule&#45;&gt;AppModule -->
<g id="edge1" class="edge">
<title>AuthModule&#45;&gt;AppModule</title>
<path fill="none" stroke="black" d="M392,-187.13C392,-197.71 392,-209 392,-209 392,-209 80.47,-209 80.47,-209 80.47,-209 80.47,-281.94 80.47,-281.94"/>
<polygon fill="black" stroke="black" points="76.97,-281.94 80.47,-291.94 83.97,-281.94 76.97,-281.94"/>
</g>
<!-- AdminService  -->
<g id="node9" class="node">
<title>AdminService </title>
<polygon fill="#fb8072" stroke="black" points="4149.37,-252 4048.63,-252 4048.63,-216 4149.37,-216 4149.37,-252"/>
<text text-anchor="middle" x="4099" y="-229.8" font-family="Times,serif" font-size="14.00">AdminService </text>
</g>
<!-- AuthModule&#45;&gt;AdminService  -->
<g id="edge8" class="edge">
<title>AuthModule&#45;&gt;AdminService </title>
<path fill="none" stroke="black" stroke-dasharray="5,2" d="M435.56,-166C851.07,-166 4099,-166 4099,-166 4099,-166 4099,-205.78 4099,-205.78"/>
<polygon fill="black" stroke="black" points="4095.5,-205.78 4099,-215.78 4102.5,-205.78 4095.5,-205.78"/>
</g>
<!-- ApiKeyService  -->
<g id="node10" class="node">
<title>ApiKeyService </title>
<polygon fill="#fb8072" stroke="black" points="4030.8,-252 3925.2,-252 3925.2,-216 4030.8,-216 4030.8,-252"/>
<text text-anchor="middle" x="3978" y="-229.8" font-family="Times,serif" font-size="14.00">ApiKeyService </text>
</g>
<!-- AuthModule&#45;&gt;ApiKeyService  -->
<g id="edge9" class="edge">
<title>AuthModule&#45;&gt;ApiKeyService </title>
<path fill="none" stroke="black" stroke-dasharray="5,2" d="M435.73,-167C844.27,-167 3978,-167 3978,-167 3978,-167 3978,-205.69 3978,-205.69"/>
<polygon fill="black" stroke="black" points="3974.5,-205.69 3978,-215.69 3981.5,-205.69 3974.5,-205.69"/>
</g>
<!-- AuthResponseHelper  -->
<g id="node11" class="node">
<title>AuthResponseHelper </title>
<polygon fill="#fb8072" stroke="black" points="3906.74,-252 3767.26,-252 3767.26,-216 3906.74,-216 3906.74,-252"/>
<text text-anchor="middle" x="3837" y="-229.8" font-family="Times,serif" font-size="14.00">AuthResponseHelper </text>
</g>
<!-- AuthModule&#45;&gt;AuthResponseHelper  -->
<g id="edge10" class="edge">
<title>AuthModule&#45;&gt;AuthResponseHelper </title>
<path fill="none" stroke="black" stroke-dasharray="5,2" d="M435.56,-169C834.35,-169 3837,-169 3837,-169 3837,-169 3837,-205.89 3837,-205.89"/>
<polygon fill="black" stroke="black" points="3833.5,-205.89 3837,-215.89 3840.5,-205.89 3833.5,-205.89"/>
</g>
<!-- AuthService  -->
<g id="node12" class="node">
<title>AuthService </title>
<polygon fill="#fb8072" stroke="black" points="3749.98,-252 3660.02,-252 3660.02,-216 3749.98,-216 3749.98,-252"/>
<text text-anchor="middle" x="3705" y="-229.8" font-family="Times,serif" font-size="14.00">AuthService </text>
</g>
<!-- AuthModule&#45;&gt;AuthService  -->
<g id="edge11" class="edge">
<title>AuthModule&#45;&gt;AuthService </title>
<path fill="none" stroke="black" stroke-dasharray="5,2" d="M435.71,-170C826.45,-170 3705,-170 3705,-170 3705,-170 3705,-205.83 3705,-205.83"/>
<polygon fill="black" stroke="black" points="3701.5,-205.83 3705,-215.83 3708.5,-205.83 3701.5,-205.83"/>
</g>
<!-- EmailOtpService  -->
<g id="node13" class="node">
<title>EmailOtpService </title>
<polygon fill="#fb8072" stroke="black" points="5199.91,-252 5084.09,-252 5084.09,-216 5199.91,-216 5199.91,-252"/>
<text text-anchor="middle" x="5142" y="-229.8" font-family="Times,serif" font-size="14.00">EmailOtpService </text>
</g>
<!-- AuthModule&#45;&gt;EmailOtpService  -->
<g id="edge12" class="edge">
<title>AuthModule&#45;&gt;EmailOtpService </title>
<path fill="none" stroke="black" stroke-dasharray="5,2" d="M435.62,-153C912.66,-153 5142,-153 5142,-153 5142,-153 5142,-205.62 5142,-205.62"/>
<polygon fill="black" stroke="black" points="5138.5,-205.62 5142,-215.62 5145.5,-205.62 5138.5,-205.62"/>
</g>
<!-- MagicLinkService  -->
<g id="node14" class="node">
<title>MagicLinkService </title>
<polygon fill="#fb8072" stroke="black" points="5065.69,-252 4942.31,-252 4942.31,-216 5065.69,-216 5065.69,-252"/>
<text text-anchor="middle" x="5004" y="-229.8" font-family="Times,serif" font-size="14.00">MagicLinkService </text>
</g>
<!-- AuthModule&#45;&gt;MagicLinkService  -->
<g id="edge13" class="edge">
<title>AuthModule&#45;&gt;MagicLinkService </title>
<path fill="none" stroke="black" stroke-dasharray="5,2" d="M435.8,-155C906.03,-155 5004,-155 5004,-155 5004,-155 5004,-205.68 5004,-205.68"/>
<polygon fill="black" stroke="black" points="5000.5,-205.68 5004,-215.68 5007.5,-205.68 5000.5,-205.68"/>
</g>
<!-- MultiSessionService  -->
<g id="node15" class="node">
<title>MultiSessionService </title>
<polygon fill="#fb8072" stroke="black" points="4923.87,-252 4788.13,-252 4788.13,-216 4923.87,-216 4923.87,-252"/>
<text text-anchor="middle" x="4856" y="-229.8" font-family="Times,serif" font-size="14.00">MultiSessionService </text>
</g>
<!-- AuthModule&#45;&gt;MultiSessionService  -->
<g id="edge14" class="edge">
<title>AuthModule&#45;&gt;MultiSessionService </title>
<path fill="none" stroke="black" stroke-dasharray="5,2" d="M435.82,-156C897.75,-156 4856,-156 4856,-156 4856,-156 4856,-205.91 4856,-205.91"/>
<polygon fill="black" stroke="black" points="4852.5,-205.91 4856,-215.91 4859.5,-205.91 4852.5,-205.91"/>
</g>
<!-- OrgsService  -->
<g id="node16" class="node">
<title>OrgsService </title>
<polygon fill="#fb8072" stroke="black" points="4770.19,-252 4681.81,-252 4681.81,-216 4770.19,-216 4770.19,-252"/>
<text text-anchor="middle" x="4726" y="-229.8" font-family="Times,serif" font-size="14.00">OrgsService </text>
</g>
<!-- AuthModule&#45;&gt;OrgsService  -->
<g id="edge15" class="edge">
<title>AuthModule&#45;&gt;OrgsService </title>
<path fill="none" stroke="black" stroke-dasharray="5,2" d="M435.6,-158C888.99,-158 4726,-158 4726,-158 4726,-158 4726,-205.99 4726,-205.99"/>
<polygon fill="black" stroke="black" points="4722.5,-205.99 4726,-215.99 4729.5,-205.99 4722.5,-205.99"/>
</g>
<!-- PasskeyService  -->
<g id="node17" class="node">
<title>PasskeyService </title>
<polygon fill="#fb8072" stroke="black" points="4663.08,-252 4556.92,-252 4556.92,-216 4663.08,-216 4663.08,-252"/>
<text text-anchor="middle" x="4610" y="-229.8" font-family="Times,serif" font-size="14.00">PasskeyService </text>
</g>
<!-- AuthModule&#45;&gt;PasskeyService  -->
<g id="edge16" class="edge">
<title>AuthModule&#45;&gt;PasskeyService </title>
<path fill="none" stroke="black" stroke-dasharray="5,2" d="M435.82,-159C883.44,-159 4610,-159 4610,-159 4610,-159 4610,-205.84 4610,-205.84"/>
<polygon fill="black" stroke="black" points="4606.5,-205.84 4610,-215.84 4613.5,-205.84 4606.5,-205.84"/>
</g>
<!-- TwoFactorService  -->
<g id="node18" class="node">
<title>TwoFactorService </title>
<polygon fill="#fb8072" stroke="black" points="4538.4,-252 4415.6,-252 4415.6,-216 4538.4,-216 4538.4,-252"/>
<text text-anchor="middle" x="4477" y="-229.8" font-family="Times,serif" font-size="14.00">TwoFactorService </text>
</g>
<!-- AuthModule&#45;&gt;TwoFactorService  -->
<g id="edge17" class="edge">
<title>AuthModule&#45;&gt;TwoFactorService </title>
<path fill="none" stroke="black" stroke-dasharray="5,2" d="M435.8,-161C875.44,-161 4477,-161 4477,-161 4477,-161 4477,-205.96 4477,-205.96"/>
<polygon fill="black" stroke="black" points="4473.5,-205.96 4477,-215.96 4480.5,-205.96 4473.5,-205.96"/>
</g>
<!-- UsernameService  -->
<g id="node19" class="node">
<title>UsernameService </title>
<polygon fill="#fb8072" stroke="black" points="4397.22,-252 4278.78,-252 4278.78,-216 4397.22,-216 4397.22,-252"/>
<text text-anchor="middle" x="4338" y="-229.8" font-family="Times,serif" font-size="14.00">UsernameService </text>
</g>
<!-- AuthModule&#45;&gt;UsernameService  -->
<g id="edge18" class="edge">
<title>AuthModule&#45;&gt;UsernameService </title>
<path fill="none" stroke="black" stroke-dasharray="5,2" d="M435.64,-162C866.22,-162 4338,-162 4338,-162 4338,-162 4338,-205.83 4338,-205.83"/>
<polygon fill="black" stroke="black" points="4334.5,-205.83 4338,-215.83 4341.5,-205.83 4334.5,-205.83"/>
</g>
<!-- UsersService  -->
<g id="node20" class="node">
<title>UsersService </title>
<polygon fill="#fb8072" stroke="black" points="4260.85,-252 4167.15,-252 4167.15,-216 4260.85,-216 4260.85,-252"/>
<text text-anchor="middle" x="4214" y="-229.8" font-family="Times,serif" font-size="14.00">UsersService </text>
</g>
<!-- AuthModule&#45;&gt;UsersService  -->
<g id="edge19" class="edge">
<title>AuthModule&#45;&gt;UsersService </title>
<path fill="none" stroke="black" stroke-dasharray="5,2" d="M435.58,-164C858.32,-164 4214,-164 4214,-164 4214,-164 4214,-205.97 4214,-205.97"/>
<polygon fill="black" stroke="black" points="4210.5,-205.97 4214,-215.97 4217.5,-205.97 4210.5,-205.97"/>
</g>
<!-- BunnyModule -->
<g id="node2" class="node">
<title>BunnyModule</title>
<polygon fill="#8dd3c7" stroke="black" points="307.39,-252 304.39,-256 283.39,-256 280.39,-252 210.61,-252 210.61,-216 307.39,-216 307.39,-252"/>
<text text-anchor="middle" x="259" y="-229.8" font-family="Times,serif" font-size="14.00">BunnyModule</text>
</g>
<!-- BunnyModule&#45;&gt;AppModule -->
<g id="edge2" class="edge">
<title>BunnyModule&#45;&gt;AppModule</title>
<path fill="none" stroke="black" d="M259,-252.15C259,-275.76 259,-314 259,-314 259,-314 128.75,-314 128.75,-314"/>
<polygon fill="black" stroke="black" points="128.75,-310.5 118.75,-314 128.75,-317.5 128.75,-310.5"/>
</g>
<!-- BunnyStorageService  -->
<g id="node31" class="node">
<title>BunnyStorageService </title>
<polygon fill="#fb8072" stroke="black" points="831.58,-328 690.42,-328 690.42,-292 831.58,-292 831.58,-328"/>
<text text-anchor="middle" x="761" y="-305.8" font-family="Times,serif" font-size="14.00">BunnyStorageService </text>
</g>
<!-- BunnyModule&#45;&gt;BunnyStorageService  -->
<g id="edge32" class="edge">
<title>BunnyModule&#45;&gt;BunnyStorageService </title>
<path fill="none" stroke="black" stroke-dasharray="5,2" d="M234.78,-252.15C234.78,-265.74 234.78,-282 234.78,-282 234.78,-282 761,-282 761,-282 761,-282 761,-282.98 761,-282.98"/>
<polygon fill="black" stroke="black" points="757.5,-281.79 761,-291.79 764.5,-281.79 757.5,-281.79"/>
</g>
<!-- ConfigModule -->
<g id="node3" class="node">
<title>ConfigModule</title>
<polygon fill="#8dd3c7" stroke="black" points="319.44,-187 316.44,-191 295.44,-191 292.44,-187 220.56,-187 220.56,-151 319.44,-151 319.44,-187"/>
<text text-anchor="middle" x="270" y="-164.8" font-family="Times,serif" font-size="14.00">ConfigModule</text>
</g>
<!-- ConfigModule&#45;&gt;BunnyModule -->
<g id="edge31" class="edge">
<title>ConfigModule&#45;&gt;BunnyModule</title>
<path fill="none" stroke="black" d="M264.11,-187.11C264.11,-187.11 264.11,-205.99 264.11,-205.99"/>
<polygon fill="black" stroke="black" points="260.61,-205.99 264.11,-215.99 267.61,-205.99 260.61,-205.99"/>
</g>
<!-- DatabaseModule -->
<g id="node4" class="node">
<title>DatabaseModule</title>
<polygon fill="#8dd3c7" stroke="black" points="436.35,-252 433.35,-256 412.35,-256 409.35,-252 325.65,-252 325.65,-216 436.35,-216 436.35,-252"/>
<text text-anchor="middle" x="381" y="-229.8" font-family="Times,serif" font-size="14.00">DatabaseModule</text>
</g>
<!-- ConfigModule&#45;&gt;DatabaseModule -->
<g id="edge39" class="edge">
<title>ConfigModule&#45;&gt;DatabaseModule</title>
<path fill="none" stroke="black" d="M316.27,-187.11C316.27,-206.34 316.27,-234 316.27,-234 316.27,-234 317.2,-234 317.2,-234"/>
<polygon fill="black" stroke="black" points="315.55,-237.5 325.55,-234 315.55,-230.5 315.55,-237.5"/>
</g>
<!-- HealthModule -->
<g id="node5" class="node">
<title>HealthModule</title>
<polygon fill="#8dd3c7" stroke="black" points="192.37,-252 189.37,-256 168.37,-256 165.37,-252 95.63,-252 95.63,-216 192.37,-216 192.37,-252"/>
<text text-anchor="middle" x="144" y="-229.8" font-family="Times,serif" font-size="14.00">HealthModule</text>
</g>
<!-- ConfigModule&#45;&gt;HealthModule -->
<g id="edge44" class="edge">
<title>ConfigModule&#45;&gt;HealthModule</title>
<path fill="none" stroke="black" d="M220.63,-175C197.12,-175 174.06,-175 174.06,-175 174.06,-175 174.06,-205.98 174.06,-205.98"/>
<polygon fill="black" stroke="black" points="170.56,-205.98 174.06,-215.98 177.56,-205.98 170.56,-205.98"/>
</g>
<!-- ConfigModule&#45;&gt;AppModule -->
<g id="edge3" class="edge">
<title>ConfigModule&#45;&gt;AppModule</title>
<path fill="none" stroke="black" d="M220.73,-163C160.18,-163 65.37,-163 65.37,-163 65.37,-163 65.37,-281.97 65.37,-281.97"/>
<polygon fill="black" stroke="black" points="61.87,-281.97 65.37,-291.97 68.87,-281.97 61.87,-281.97"/>
</g>
<!-- AppConfigService  -->
<g id="node36" class="node">
<title>AppConfigService </title>
<polygon fill="#fb8072" stroke="black" points="5554.47,-252 5429.53,-252 5429.53,-216 5554.47,-216 5554.47,-252"/>
<text text-anchor="middle" x="5492" y="-229.8" font-family="Times,serif" font-size="14.00">AppConfigService </text>
</g>
<!-- ConfigModule&#45;&gt;AppConfigService  -->
<g id="edge37" class="edge">
<title>ConfigModule&#45;&gt;AppConfigService </title>
<path fill="none" stroke="black" stroke-dasharray="5,2" d="M310.39,-187.06C310.39,-191.49 310.39,-195 310.39,-195 310.39,-195 5492,-195 5492,-195 5492,-195 5492,-205.87 5492,-205.87"/>
<polygon fill="black" stroke="black" points="5488.5,-205.87 5492,-215.87 5495.5,-205.87 5488.5,-205.87"/>
</g>
<!-- DatabaseModule&#45;&gt;AppModule -->
<g id="edge4" class="edge">
<title>DatabaseModule&#45;&gt;AppModule</title>
<path fill="none" stroke="black" d="M408.71,-252.03C408.71,-277.51 408.71,-321 408.71,-321 408.71,-321 128.68,-321 128.68,-321"/>
<polygon fill="black" stroke="black" points="128.68,-317.5 118.68,-321 128.68,-324.5 128.68,-317.5"/>
</g>
<!-- CacheModule -->
<g id="node33" class="node">
<title>CacheModule</title>
<polygon fill="#8dd3c7" stroke="black" points="1575.03,-328 1572.03,-332 1551.03,-332 1548.03,-328 1480.97,-328 1480.97,-292 1575.03,-292 1575.03,-328"/>
<text text-anchor="middle" x="1528" y="-305.8" font-family="Times,serif" font-size="14.00">CacheModule</text>
</g>
<!-- DatabaseModule&#45;&gt;CacheModule -->
<g id="edge34" class="edge">
<title>DatabaseModule&#45;&gt;CacheModule</title>
<path fill="none" stroke="black" d="M436.71,-222C656.57,-222 1452.13,-222 1452.13,-222 1452.13,-222 1452.13,-310 1452.13,-310 1452.13,-310 1470.82,-310 1470.82,-310"/>
<polygon fill="black" stroke="black" points="1470.82,-313.5 1480.82,-310 1470.82,-306.5 1470.82,-313.5"/>
</g>
<!-- DatabaseService  -->
<g id="node38" class="node">
<title>DatabaseService </title>
<polygon fill="#fb8072" stroke="black" points="1432.28,-328 1319.72,-328 1319.72,-292 1432.28,-292 1432.28,-328"/>
<text text-anchor="middle" x="1376" y="-305.8" font-family="Times,serif" font-size="14.00">DatabaseService </text>
</g>
<!-- DatabaseModule&#45;&gt;DatabaseService  -->
<g id="edge40" class="edge">
<title>DatabaseModule&#45;&gt;DatabaseService </title>
<path fill="none" stroke="black" stroke-dasharray="5,2" d="M436.63,-228C646.17,-228 1376,-228 1376,-228 1376,-228 1376,-281.8 1376,-281.8"/>
<polygon fill="black" stroke="black" points="1372.5,-281.8 1376,-291.8 1379.5,-281.8 1372.5,-281.8"/>
</g>
<!-- PgPoolService  -->
<g id="node39" class="node">
<title>PgPoolService </title>
<polygon fill="#fb8072" stroke="black" points="1301.93,-328 1200.07,-328 1200.07,-292 1301.93,-292 1301.93,-328"/>
<text text-anchor="middle" x="1251" y="-305.8" font-family="Times,serif" font-size="14.00">PgPoolService </text>
</g>
<!-- DatabaseModule&#45;&gt;PgPoolService  -->
<g id="edge41" class="edge">
<title>DatabaseModule&#45;&gt;PgPoolService </title>
<path fill="none" stroke="black" stroke-dasharray="5,2" d="M436.41,-234C628.05,-234 1251,-234 1251,-234 1251,-234 1251,-281.99 1251,-281.99"/>
<polygon fill="black" stroke="black" points="1247.5,-281.99 1251,-291.99 1254.5,-281.99 1247.5,-281.99"/>
</g>
<!-- PubSubModule -->
<g id="node42" class="node">
<title>PubSubModule</title>
<polygon fill="#8dd3c7" stroke="black" points="1752.62,-328 1749.62,-332 1728.62,-332 1725.62,-328 1649.38,-328 1649.38,-292 1752.62,-292 1752.62,-328"/>
<text text-anchor="middle" x="1701" y="-305.8" font-family="Times,serif" font-size="14.00">PubSubModule</text>
</g>
<!-- DatabaseModule&#45;&gt;PubSubModule -->
<g id="edge45" class="edge">
<title>DatabaseModule&#45;&gt;PubSubModule</title>
<path fill="none" stroke="black" d="M353.29,-252.11C353.29,-261.9 353.29,-272 353.29,-272 353.29,-272 1683.81,-272 1683.81,-272 1683.81,-272 1683.81,-281.89 1683.81,-281.89"/>
<polygon fill="black" stroke="black" points="1680.31,-281.89 1683.81,-291.89 1687.31,-281.89 1680.31,-281.89"/>
</g>
<!-- QueueModule -->
<g id="node45" class="node">
<title>QueueModule</title>
<polygon fill="#8dd3c7" stroke="black" points="1925.09,-328 1922.09,-332 1901.09,-332 1898.09,-328 1828.91,-328 1828.91,-292 1925.09,-292 1925.09,-328"/>
<text text-anchor="middle" x="1877" y="-305.8" font-family="Times,serif" font-size="14.00">QueueModule</text>
</g>
<!-- DatabaseModule&#45;&gt;QueueModule -->
<g id="edge48" class="edge">
<title>DatabaseModule&#45;&gt;QueueModule</title>
<path fill="none" stroke="black" d="M381,-252.21C381,-257.55 381,-262 381,-262 381,-262 1860.99,-262 1860.99,-262 1860.99,-262 1860.99,-281.85 1860.99,-281.85"/>
<polygon fill="black" stroke="black" points="1857.49,-281.85 1860.99,-291.85 1864.49,-281.85 1857.49,-281.85"/>
</g>
<!-- HealthModule&#45;&gt;AppModule -->
<g id="edge5" class="edge">
<title>HealthModule&#45;&gt;AppModule</title>
<path fill="none" stroke="black" d="M107.2,-252.01C107.2,-252.01 107.2,-281.85 107.2,-281.85"/>
<polygon fill="black" stroke="black" points="103.7,-281.85 107.2,-291.85 110.7,-281.85 103.7,-281.85"/>
</g>
<!-- AppService -->
<g id="node7" class="node">
<title>AppService</title>
<ellipse fill="#fdb462" stroke="black" cx="81" cy="-104" rx="56.74" ry="18"/>
<text text-anchor="middle" x="81" y="-99.8" font-family="Times,serif" font-size="14.00">AppService</text>
</g>
<!-- AppService&#45;&gt;AppModule -->
<g id="edge6" class="edge">
<title>AppService&#45;&gt;AppModule</title>
<path fill="none" stroke="black" d="M50.27,-119.15C50.27,-119.15 50.27,-281.93 50.27,-281.93"/>
<polygon fill="black" stroke="black" points="46.77,-281.93 50.27,-291.93 53.77,-281.93 46.77,-281.93"/>
</g>
<!-- AuthService -->
<g id="node8" class="node">
<title>AuthService</title>
<ellipse fill="#fdb462" stroke="black" cx="215" cy="-104" rx="59.11" ry="18"/>
<text text-anchor="middle" x="215" y="-99.8" font-family="Times,serif" font-size="14.00">AuthService</text>
</g>
<!-- AuthService&#45;&gt;AuthModule -->
<g id="edge22" class="edge">
<title>AuthService&#45;&gt;AuthModule</title>
<path fill="none" stroke="black" d="M274.43,-104C325.85,-104 392,-104 392,-104 392,-104 392,-140.89 392,-140.89"/>
<polygon fill="black" stroke="black" points="388.5,-140.89 392,-150.89 395.5,-140.89 388.5,-140.89"/>
</g>
<!-- AuthService&#45;&gt;AppModule -->
<g id="edge7" class="edge">
<title>AuthService&#45;&gt;AppModule</title>
<path fill="none" stroke="black" d="M201.5,-121.66C201.5,-171.05 201.5,-307 201.5,-307 201.5,-307 128.8,-307 128.8,-307"/>
<polygon fill="black" stroke="black" points="128.8,-303.5 118.8,-307 128.8,-310.5 128.8,-303.5"/>
</g>
<!-- AdminService -->
<g id="node21" class="node">
<title>AdminService</title>
<ellipse fill="#fdb462" stroke="black" cx="2216" cy="-234" rx="66.63" ry="18"/>
<text text-anchor="middle" x="2216" y="-229.8" font-family="Times,serif" font-size="14.00">AdminService</text>
</g>
<!-- AdminService&#45;&gt;AuthModule -->
<g id="edge20" class="edge">
<title>AdminService&#45;&gt;AuthModule</title>
<path fill="none" stroke="black" d="M2216,-215.95C2216,-201.63 2216,-184 2216,-184 2216,-184 445.74,-184 445.74,-184"/>
<polygon fill="black" stroke="black" points="445.74,-180.5 435.74,-184 445.74,-187.5 445.74,-180.5"/>
</g>
<!-- ApiKeyService -->
<g id="node22" class="node">
<title>ApiKeyService</title>
<ellipse fill="#fdb462" stroke="black" cx="2061" cy="-234" rx="70.62" ry="18"/>
<text text-anchor="middle" x="2061" y="-229.8" font-family="Times,serif" font-size="14.00">ApiKeyService</text>
</g>
<!-- ApiKeyService&#45;&gt;AuthModule -->
<g id="edge21" class="edge">
<title>ApiKeyService&#45;&gt;AuthModule</title>
<path fill="none" stroke="black" d="M2061,-215.85C2061,-202.26 2061,-186 2061,-186 2061,-186 445.78,-186 445.78,-186"/>
<polygon fill="black" stroke="black" points="445.78,-182.5 435.78,-186 445.78,-189.5 445.78,-182.5"/>
</g>
<!-- EmailOtpService -->
<g id="node23" class="node">
<title>EmailOtpService</title>
<ellipse fill="#fdb462" stroke="black" cx="3558" cy="-234" rx="77.58" ry="18"/>
<text text-anchor="middle" x="3558" y="-229.8" font-family="Times,serif" font-size="14.00">EmailOtpService</text>
</g>
<!-- EmailOtpService&#45;&gt;AuthModule -->
<g id="edge23" class="edge">
<title>EmailOtpService&#45;&gt;AuthModule</title>
<path fill="none" stroke="black" d="M3558,-215.73C3558,-197.44 3558,-172 3558,-172 3558,-172 445.55,-172 445.55,-172"/>
<polygon fill="black" stroke="black" points="445.55,-168.5 435.55,-172 445.55,-175.5 445.55,-168.5"/>
</g>
<!-- MagicLinkService -->
<g id="node24" class="node">
<title>MagicLinkService</title>
<ellipse fill="#fdb462" stroke="black" cx="3380" cy="-234" rx="82.8" ry="18"/>
<text text-anchor="middle" x="3380" y="-229.8" font-family="Times,serif" font-size="14.00">MagicLinkService</text>
</g>
<!-- MagicLinkService&#45;&gt;AuthModule -->
<g id="edge24" class="edge">
<title>MagicLinkService&#45;&gt;AuthModule</title>
<path fill="none" stroke="black" d="M3380,-215.7C3380,-197.73 3380,-173 3380,-173 3380,-173 445.68,-173 445.68,-173"/>
<polygon fill="black" stroke="black" points="445.68,-169.5 435.68,-173 445.68,-176.5 445.68,-169.5"/>
</g>
<!-- MultiSessionService -->
<g id="node25" class="node">
<title>MultiSessionService</title>
<ellipse fill="#fdb462" stroke="black" cx="3188" cy="-234" rx="90.92" ry="18"/>
<text text-anchor="middle" x="3188" y="-229.8" font-family="Times,serif" font-size="14.00">MultiSessionService</text>
</g>
<!-- MultiSessionService&#45;&gt;AuthModule -->
<g id="edge25" class="edge">
<title>MultiSessionService&#45;&gt;AuthModule</title>
<path fill="none" stroke="black" d="M3188,-215.98C3188,-198.63 3188,-175 3188,-175 3188,-175 445.64,-175 445.64,-175"/>
<polygon fill="black" stroke="black" points="445.64,-171.5 435.64,-175 445.64,-178.5 445.64,-171.5"/>
</g>
<!-- OrgsService -->
<g id="node26" class="node">
<title>OrgsService</title>
<ellipse fill="#fdb462" stroke="black" cx="3020" cy="-234" rx="58.53" ry="18"/>
<text text-anchor="middle" x="3020" y="-229.8" font-family="Times,serif" font-size="14.00">OrgsService</text>
</g>
<!-- OrgsService&#45;&gt;AuthModule -->
<g id="edge26" class="edge">
<title>OrgsService&#45;&gt;AuthModule</title>
<path fill="none" stroke="black" d="M3020,-215.96C3020,-199.27 3020,-177 3020,-177 3020,-177 445.69,-177 445.69,-177"/>
<polygon fill="black" stroke="black" points="445.69,-173.5 435.69,-177 445.69,-180.5 445.69,-173.5"/>
</g>
<!-- PasskeyService -->
<g id="node27" class="node">
<title>PasskeyService</title>
<ellipse fill="#fdb462" stroke="black" cx="2872" cy="-234" rx="71.2" ry="18"/>
<text text-anchor="middle" x="2872" y="-229.8" font-family="Times,serif" font-size="14.00">PasskeyService</text>
</g>
<!-- PasskeyService&#45;&gt;AuthModule -->
<g id="edge27" class="edge">
<title>PasskeyService&#45;&gt;AuthModule</title>
<path fill="none" stroke="black" d="M2872,-215.97C2872,-199.6 2872,-178 2872,-178 2872,-178 445.57,-178 445.57,-178"/>
<polygon fill="black" stroke="black" points="445.57,-174.5 435.57,-178 445.57,-181.5 445.57,-174.5"/>
</g>
<!-- TwoFactorService -->
<g id="node28" class="node">
<title>TwoFactorService</title>
<ellipse fill="#fdb462" stroke="black" cx="2701" cy="-234" rx="82.22" ry="18"/>
<text text-anchor="middle" x="2701" y="-229.8" font-family="Times,serif" font-size="14.00">TwoFactorService</text>
</g>
<!-- TwoFactorService&#45;&gt;AuthModule -->
<g id="edge28" class="edge">
<title>TwoFactorService&#45;&gt;AuthModule</title>
<path fill="none" stroke="black" d="M2701,-215.72C2701,-200.05 2701,-180 2701,-180 2701,-180 445.56,-180 445.56,-180"/>
<polygon fill="black" stroke="black" points="445.56,-176.5 435.56,-180 445.56,-183.5 445.56,-176.5"/>
</g>
<!-- UsernameService -->
<g id="node29" class="node">
<title>UsernameService</title>
<ellipse fill="#fdb462" stroke="black" cx="2522" cy="-234" rx="79.27" ry="18"/>
<text text-anchor="middle" x="2522" y="-229.8" font-family="Times,serif" font-size="14.00">UsernameService</text>
</g>
<!-- UsernameService&#45;&gt;AuthModule -->
<g id="edge29" class="edge">
<title>UsernameService&#45;&gt;AuthModule</title>
<path fill="none" stroke="black" d="M2522,-215.76C2522,-200.43 2522,-181 2522,-181 2522,-181 446,-181 446,-181"/>
<polygon fill="black" stroke="black" points="446,-177.5 436,-181 446,-184.5 446,-177.5"/>
</g>
<!-- UsersService -->
<g id="node30" class="node">
<title>UsersService</title>
<ellipse fill="#fdb462" stroke="black" cx="2363" cy="-234" rx="61.95" ry="18"/>
<text text-anchor="middle" x="2363" y="-229.8" font-family="Times,serif" font-size="14.00">UsersService</text>
</g>
<!-- UsersService&#45;&gt;AuthModule -->
<g id="edge30" class="edge">
<title>UsersService&#45;&gt;AuthModule</title>
<path fill="none" stroke="black" d="M2363,-215.88C2363,-201.22 2363,-183 2363,-183 2363,-183 445.93,-183 445.93,-183"/>
<polygon fill="black" stroke="black" points="445.93,-179.5 435.93,-183 445.93,-186.5 445.93,-179.5"/>
</g>
<!-- BunnyStorageService -->
<g id="node32" class="node">
<title>BunnyStorageService</title>
<ellipse fill="#fdb462" stroke="black" cx="571" cy="-310" rx="95.49" ry="18"/>
<text text-anchor="middle" x="571" y="-305.8" font-family="Times,serif" font-size="14.00">BunnyStorageService</text>
</g>
<!-- BunnyStorageService&#45;&gt;BunnyModule -->
<g id="edge33" class="edge">
<title>BunnyStorageService&#45;&gt;BunnyModule</title>
<path fill="none" stroke="black" d="M491.6,-300C406.42,-300 283.22,-300 283.22,-300 283.22,-300 283.22,-262.03 283.22,-262.03"/>
<polygon fill="black" stroke="black" points="286.72,-262.03 283.22,-252.03 279.72,-262.03 286.72,-262.03"/>
</g>
<!-- CacheService  -->
<g id="node34" class="node">
<title>CacheService </title>
<polygon fill="#fb8072" stroke="black" points="1576.46,-396 1479.54,-396 1479.54,-360 1576.46,-360 1576.46,-396"/>
<text text-anchor="middle" x="1528" y="-373.8" font-family="Times,serif" font-size="14.00">CacheService </text>
</g>
<!-- CacheModule&#45;&gt;CacheService  -->
<g id="edge35" class="edge">
<title>CacheModule&#45;&gt;CacheService </title>
<path fill="none" stroke="black" stroke-dasharray="5,2" d="M1528,-328.22C1528,-328.22 1528,-349.73 1528,-349.73"/>
<polygon fill="black" stroke="black" points="1524.5,-349.73 1528,-359.73 1531.5,-349.73 1524.5,-349.73"/>
</g>
<!-- CacheService -->
<g id="node35" class="node">
<title>CacheService</title>
<ellipse fill="#fdb462" stroke="black" cx="1536" cy="-234" rx="64.24" ry="18"/>
<text text-anchor="middle" x="1536" y="-229.8" font-family="Times,serif" font-size="14.00">CacheService</text>
</g>
<!-- CacheService&#45;&gt;CacheModule -->
<g id="edge36" class="edge">
<title>CacheService&#45;&gt;CacheModule</title>
<path fill="none" stroke="black" d="M1528,-252.01C1528,-252.01 1528,-281.85 1528,-281.85"/>
<polygon fill="black" stroke="black" points="1524.5,-281.85 1528,-291.85 1531.5,-281.85 1524.5,-281.85"/>
</g>
<!-- AppConfigService -->
<g id="node37" class="node">
<title>AppConfigService</title>
<ellipse fill="#fdb462" stroke="black" cx="5323" cy="-234" rx="83.39" ry="18"/>
<text text-anchor="middle" x="5323" y="-229.8" font-family="Times,serif" font-size="14.00">AppConfigService</text>
</g>
<!-- AppConfigService&#45;&gt;ConfigModule -->
<g id="edge38" class="edge">
<title>AppConfigService&#45;&gt;ConfigModule</title>
<path fill="none" stroke="black" d="M5323,-215.76C5323,-208.57 5323,-202 5323,-202 5323,-202 313.33,-202 313.33,-202 313.33,-202 313.33,-197.04 313.33,-197.04"/>
<polygon fill="black" stroke="black" points="316.83,-197.04 313.33,-187.04 309.83,-197.04 316.83,-197.04"/>
</g>
<!-- DatabaseService -->
<g id="node40" class="node">
<title>DatabaseService</title>
<ellipse fill="#fdb462" stroke="black" cx="1101" cy="-310" rx="75.26" ry="18"/>
<text text-anchor="middle" x="1101" y="-305.8" font-family="Times,serif" font-size="14.00">DatabaseService</text>
</g>
<!-- DatabaseService&#45;&gt;DatabaseModule -->
<g id="edge42" class="edge">
<title>DatabaseService&#45;&gt;DatabaseModule</title>
<path fill="none" stroke="black" d="M1101,-291.97C1101,-271.23 1101,-240 1101,-240 1101,-240 446.6,-240 446.6,-240"/>
<polygon fill="black" stroke="black" points="446.6,-236.5 436.6,-240 446.6,-243.5 446.6,-236.5"/>
</g>
<!-- PgPoolService -->
<g id="node41" class="node">
<title>PgPoolService</title>
<ellipse fill="#fdb462" stroke="black" cx="940" cy="-310" rx="67.8" ry="18"/>
<text text-anchor="middle" x="940" y="-305.8" font-family="Times,serif" font-size="14.00">PgPoolService</text>
</g>
<!-- PgPoolService&#45;&gt;DatabaseModule -->
<g id="edge43" class="edge">
<title>PgPoolService&#45;&gt;DatabaseModule</title>
<path fill="none" stroke="black" d="M940,-291.83C940,-272.91 940,-246 940,-246 940,-246 446.39,-246 446.39,-246"/>
<polygon fill="black" stroke="black" points="446.39,-242.5 436.39,-246 446.39,-249.5 446.39,-242.5"/>
</g>
<!-- PubSubService  -->
<g id="node43" class="node">
<title>PubSubService </title>
<polygon fill="#fb8072" stroke="black" points="1753.54,-396 1648.46,-396 1648.46,-360 1753.54,-360 1753.54,-396"/>
<text text-anchor="middle" x="1701" y="-373.8" font-family="Times,serif" font-size="14.00">PubSubService </text>
</g>
<!-- PubSubModule&#45;&gt;PubSubService  -->
<g id="edge46" class="edge">
<title>PubSubModule&#45;&gt;PubSubService </title>
<path fill="none" stroke="black" stroke-dasharray="5,2" d="M1701,-328.22C1701,-328.22 1701,-349.73 1701,-349.73"/>
<polygon fill="black" stroke="black" points="1697.5,-349.73 1701,-359.73 1704.5,-349.73 1697.5,-349.73"/>
</g>
<!-- PubSubService -->
<g id="node44" class="node">
<title>PubSubService</title>
<ellipse fill="#fdb462" stroke="black" cx="1710" cy="-234" rx="70.08" ry="18"/>
<text text-anchor="middle" x="1710" y="-229.8" font-family="Times,serif" font-size="14.00">PubSubService</text>
</g>
<!-- PubSubService&#45;&gt;PubSubModule -->
<g id="edge47" class="edge">
<title>PubSubService&#45;&gt;PubSubModule</title>
<path fill="none" stroke="black" d="M1718.19,-252.01C1718.19,-252.01 1718.19,-281.85 1718.19,-281.85"/>
<polygon fill="black" stroke="black" points="1714.69,-281.85 1718.19,-291.85 1721.69,-281.85 1714.69,-281.85"/>
</g>
<!-- QueueService  -->
<g id="node46" class="node">
<title>QueueService </title>
<polygon fill="#fb8072" stroke="black" points="1926.01,-396 1827.99,-396 1827.99,-360 1926.01,-360 1926.01,-396"/>
<text text-anchor="middle" x="1877" y="-373.8" font-family="Times,serif" font-size="14.00">QueueService </text>
</g>
<!-- QueueModule&#45;&gt;QueueService  -->
<g id="edge49" class="edge">
<title>QueueModule&#45;&gt;QueueService </title>
<path fill="none" stroke="black" stroke-dasharray="5,2" d="M1877,-328.22C1877,-328.22 1877,-349.73 1877,-349.73"/>
<polygon fill="black" stroke="black" points="1873.5,-349.73 1877,-359.73 1880.5,-349.73 1873.5,-349.73"/>
</g>
<!-- QueueService -->
<g id="node47" class="node">
<title>QueueService</title>
<ellipse fill="#fdb462" stroke="black" cx="1885" cy="-234" rx="65.39" ry="18"/>
<text text-anchor="middle" x="1885" y="-229.8" font-family="Times,serif" font-size="14.00">QueueService</text>
</g>
<!-- QueueService&#45;&gt;QueueModule -->
<g id="edge50" class="edge">
<title>QueueService&#45;&gt;QueueModule</title>
<path fill="none" stroke="black" d="M1893.01,-252.01C1893.01,-252.01 1893.01,-281.85 1893.01,-281.85"/>
<polygon fill="black" stroke="black" points="1889.51,-281.85 1893.01,-291.85 1896.51,-281.85 1889.51,-281.85"/>
</g>
</g>
</svg>
