<?xml version="1.0" encoding="UTF-8" standalone="no"?>
<!DOCTYPE svg PUBLIC "-//W3C//DTD SVG 1.1//EN"
 "http://www.w3.org/Graphics/SVG/1.1/DTD/svg11.dtd">
<!-- Generated by graphviz version 2.47.0 (20210316.0004)
 -->
<!-- Title: dependencies Pages: 1 -->
<svg width="3555pt" height="360pt"
 viewBox="0.00 0.00 3555.00 360.00" xmlns="http://www.w3.org/2000/svg" xmlns:xlink="http://www.w3.org/1999/xlink">
<g id="graph0" class="graph" transform="scale(1 1) rotate(0) translate(4 356)">
<title>dependencies</title>
<polygon fill="white" stroke="transparent" points="-4,4 -4,-356 3551,-356 3551,4 -4,4"/>
<text text-anchor="start" x="1752.51" y="-42.4" font-family="Times-12" font-weight="bold" font-size="14.00">Legend</text>
<polygon fill="#ffffb3" stroke="transparent" points="1539.5,-10 1539.5,-30 1559.5,-30 1559.5,-10 1539.5,-10"/>
<text text-anchor="start" x="1563.13" y="-15.4" font-family="Times-12" font-size="14.00"> &#160;Declarations</text>
<polygon fill="#8dd3c7" stroke="transparent" points="1652.5,-10 1652.5,-30 1672.5,-30 1672.5,-10 1652.5,-10"/>
<text text-anchor="start" x="1676.23" y="-15.4" font-family="Times-12" font-size="14.00"> &#160;Module</text>
<polygon fill="#80b1d3" stroke="transparent" points="1738.5,-10 1738.5,-30 1758.5,-30 1758.5,-10 1738.5,-10"/>
<text text-anchor="start" x="1762.28" y="-15.4" font-family="Times-12" font-size="14.00"> &#160;Bootstrap</text>
<polygon fill="#fdb462" stroke="transparent" points="1835.5,-10 1835.5,-30 1855.5,-30 1855.5,-10 1835.5,-10"/>
<text text-anchor="start" x="1859.17" y="-15.4" font-family="Times-12" font-size="14.00"> &#160;Providers</text>
<polygon fill="#fb8072" stroke="transparent" points="1931.5,-10 1931.5,-30 1951.5,-30 1951.5,-10 1931.5,-10"/>
<text text-anchor="start" x="1955.23" y="-15.4" font-family="Times-12" font-size="14.00"> &#160;Exports</text>
<g id="clust1" class="cluster">
<title>cluster_AppModule</title>
<polygon fill="none" stroke="black" stroke-dasharray="1,5" points="8,-70 8,-336 290,-336 290,-70 8,-70"/>
</g>
<g id="clust3" class="cluster">
<title>cluster_AppModule_imports</title>
<polygon fill="none" stroke="black" points="62,-143 62,-260 282,-260 282,-143 62,-143"/>
</g>
<g id="clust6" class="cluster">
<title>cluster_AppModule_providers</title>
<polygon fill="none" stroke="black" points="16,-78 16,-130 282,-130 282,-78 16,-78"/>
</g>
<g id="clust7" class="cluster">
<title>cluster_AuthModule</title>
<polygon fill="none" stroke="black" stroke-dasharray="1,5" points="298,-200 298,-268 3539,-268 3539,-200 298,-200"/>
</g>
<g id="clust10" class="cluster">
<title>cluster_AuthModule_exports</title>
<polygon fill="none" stroke="black" points="1975,-208 1975,-260 3531,-260 3531,-208 1975,-208"/>
</g>
<g id="clust12" class="cluster">
<title>cluster_AuthModule_providers</title>
<polygon fill="none" stroke="black" points="306,-208 306,-260 1967,-260 1967,-208 306,-208"/>
</g>
<g id="clust19" class="cluster">
<title>cluster_DatabaseModule</title>
<polygon fill="none" stroke="black" stroke-dasharray="1,5" points="298,-276 298,-344 616,-344 616,-276 298,-276"/>
</g>
<g id="clust22" class="cluster">
<title>cluster_DatabaseModule_exports</title>
<polygon fill="none" stroke="black" points="480,-284 480,-336 608,-336 608,-284 480,-284"/>
</g>
<g id="clust24" class="cluster">
<title>cluster_DatabaseModule_providers</title>
<polygon fill="none" stroke="black" points="306,-284 306,-336 472,-336 472,-284 306,-284"/>
</g>
<!-- AuthModule -->
<g id="node1" class="node">
<title>AuthModule</title>
<polygon fill="#8dd3c7" stroke="black" points="273.55,-187 270.55,-191 249.55,-191 246.55,-187 186.45,-187 186.45,-151 273.55,-151 273.55,-187"/>
<text text-anchor="middle" x="230" y="-164.8" font-family="Times,serif" font-size="14.00">AuthModule</text>
</g>
<!-- AppModule -->
<g id="node4" class="node">
<title>AppModule</title>
<polygon fill="#8dd3c7" stroke="black" points="160.66,-328 157.66,-332 136.66,-332 133.66,-328 77.34,-328 77.34,-292 160.66,-292 160.66,-328"/>
<text text-anchor="middle" x="119" y="-305.8" font-family="Times,serif" font-size="14.00">AppModule</text>
</g>
<!-- AuthModule&#45;&gt;AppModule -->
<g id="edge1" class="edge">
<title>AuthModule&#45;&gt;AppModule</title>
<path fill="none" stroke="black" d="M229.33,-187.11C229.33,-196.9 229.33,-207 229.33,-207 229.33,-207 127.37,-207 127.37,-207 127.37,-207 127.37,-281.59 127.37,-281.59"/>
<polygon fill="black" stroke="black" points="123.87,-281.59 127.37,-291.59 130.87,-281.59 123.87,-281.59"/>
</g>
<!-- AdminService  -->
<g id="node7" class="node">
<title>AdminService </title>
<polygon fill="#fb8072" stroke="black" points="2748.37,-252 2647.63,-252 2647.63,-216 2748.37,-216 2748.37,-252"/>
<text text-anchor="middle" x="2698" y="-229.8" font-family="Times,serif" font-size="14.00">AdminService </text>
</g>
<!-- AuthModule&#45;&gt;AdminService  -->
<g id="edge6" class="edge">
<title>AuthModule&#45;&gt;AdminService </title>
<path fill="none" stroke="black" stroke-dasharray="5,2" d="M273.62,-162C603.89,-162 2698,-162 2698,-162 2698,-162 2698,-205.83 2698,-205.83"/>
<polygon fill="black" stroke="black" points="2694.5,-205.83 2698,-215.83 2701.5,-205.83 2694.5,-205.83"/>
</g>
<!-- ApiKeyService  -->
<g id="node8" class="node">
<title>ApiKeyService </title>
<polygon fill="#fb8072" stroke="black" points="2629.8,-252 2524.2,-252 2524.2,-216 2629.8,-216 2629.8,-252"/>
<text text-anchor="middle" x="2577" y="-229.8" font-family="Times,serif" font-size="14.00">ApiKeyService </text>
</g>
<!-- AuthModule&#45;&gt;ApiKeyService  -->
<g id="edge7" class="edge">
<title>AuthModule&#45;&gt;ApiKeyService </title>
<path fill="none" stroke="black" stroke-dasharray="5,2" d="M273.76,-164C595.05,-164 2577,-164 2577,-164 2577,-164 2577,-205.97 2577,-205.97"/>
<polygon fill="black" stroke="black" points="2573.5,-205.97 2577,-215.97 2580.5,-205.97 2573.5,-205.97"/>
</g>
<!-- AuthResponseHelper  -->
<g id="node9" class="node">
<title>AuthResponseHelper </title>
<polygon fill="#fb8072" stroke="black" points="2505.74,-252 2366.26,-252 2366.26,-216 2505.74,-216 2505.74,-252"/>
<text text-anchor="middle" x="2436" y="-229.8" font-family="Times,serif" font-size="14.00">AuthResponseHelper </text>
</g>
<!-- AuthModule&#45;&gt;AuthResponseHelper  -->
<g id="edge8" class="edge">
<title>AuthModule&#45;&gt;AuthResponseHelper </title>
<path fill="none" stroke="black" stroke-dasharray="5,2" d="M273.57,-166C583.01,-166 2436,-166 2436,-166 2436,-166 2436,-205.78 2436,-205.78"/>
<polygon fill="black" stroke="black" points="2432.5,-205.78 2436,-215.78 2439.5,-205.78 2432.5,-205.78"/>
</g>
<!-- AuthService  -->
<g id="node10" class="node">
<title>AuthService </title>
<polygon fill="#fb8072" stroke="black" points="2348.98,-252 2259.02,-252 2259.02,-216 2348.98,-216 2348.98,-252"/>
<text text-anchor="middle" x="2304" y="-229.8" font-family="Times,serif" font-size="14.00">AuthService </text>
</g>
<!-- AuthModule&#45;&gt;AuthService  -->
<g id="edge9" class="edge">
<title>AuthModule&#45;&gt;AuthService </title>
<path fill="none" stroke="black" stroke-dasharray="5,2" d="M273.8,-167C573,-167 2304,-167 2304,-167 2304,-167 2304,-205.69 2304,-205.69"/>
<polygon fill="black" stroke="black" points="2300.5,-205.69 2304,-215.69 2307.5,-205.69 2300.5,-205.69"/>
</g>
<!-- EmailOtpService  -->
<g id="node11" class="node">
<title>EmailOtpService </title>
<polygon fill="#fb8072" stroke="black" points="2240.91,-252 2125.09,-252 2125.09,-216 2240.91,-216 2240.91,-252"/>
<text text-anchor="middle" x="2183" y="-229.8" font-family="Times,serif" font-size="14.00">EmailOtpService </text>
</g>
<!-- AuthModule&#45;&gt;EmailOtpService  -->
<g id="edge10" class="edge">
<title>AuthModule&#45;&gt;EmailOtpService </title>
<path fill="none" stroke="black" stroke-dasharray="5,2" d="M273.99,-169C563.43,-169 2183,-169 2183,-169 2183,-169 2183,-205.89 2183,-205.89"/>
<polygon fill="black" stroke="black" points="2179.5,-205.89 2183,-215.89 2186.5,-205.89 2179.5,-205.89"/>
</g>
<!-- MagicLinkService  -->
<g id="node12" class="node">
<title>MagicLinkService </title>
<polygon fill="#fb8072" stroke="black" points="2106.69,-252 1983.31,-252 1983.31,-216 2106.69,-216 2106.69,-252"/>
<text text-anchor="middle" x="2045" y="-229.8" font-family="Times,serif" font-size="14.00">MagicLinkService </text>
</g>
<!-- AuthModule&#45;&gt;MagicLinkService  -->
<g id="edge11" class="edge">
<title>AuthModule&#45;&gt;MagicLinkService </title>
<path fill="none" stroke="black" stroke-dasharray="5,2" d="M273.97,-170C551.15,-170 2045,-170 2045,-170 2045,-170 2045,-205.83 2045,-205.83"/>
<polygon fill="black" stroke="black" points="2041.5,-205.83 2045,-215.83 2048.5,-205.83 2041.5,-205.83"/>
</g>
<!-- MultiSessionService  -->
<g id="node13" class="node">
<title>MultiSessionService </title>
<polygon fill="#fb8072" stroke="black" points="3522.87,-252 3387.13,-252 3387.13,-216 3522.87,-216 3522.87,-252"/>
<text text-anchor="middle" x="3455" y="-229.8" font-family="Times,serif" font-size="14.00">MultiSessionService </text>
</g>
<!-- AuthModule&#45;&gt;MultiSessionService  -->
<g id="edge12" class="edge">
<title>AuthModule&#45;&gt;MultiSessionService </title>
<path fill="none" stroke="black" stroke-dasharray="5,2" d="M273.75,-153C658.78,-153 3455,-153 3455,-153 3455,-153 3455,-205.62 3455,-205.62"/>
<polygon fill="black" stroke="black" points="3451.5,-205.62 3455,-215.62 3458.5,-205.62 3451.5,-205.62"/>
</g>
<!-- OrgsService  -->
<g id="node14" class="node">
<title>OrgsService </title>
<polygon fill="#fb8072" stroke="black" points="3369.19,-252 3280.81,-252 3280.81,-216 3369.19,-216 3369.19,-252"/>
<text text-anchor="middle" x="3325" y="-229.8" font-family="Times,serif" font-size="14.00">OrgsService </text>
</g>
<!-- AuthModule&#45;&gt;OrgsService  -->
<g id="edge13" class="edge">
<title>AuthModule&#45;&gt;OrgsService </title>
<path fill="none" stroke="black" stroke-dasharray="5,2" d="M273.75,-155C649.93,-155 3325,-155 3325,-155 3325,-155 3325,-205.68 3325,-205.68"/>
<polygon fill="black" stroke="black" points="3321.5,-205.68 3325,-215.68 3328.5,-205.68 3321.5,-205.68"/>
</g>
<!-- PasskeyService  -->
<g id="node15" class="node">
<title>PasskeyService </title>
<polygon fill="#fb8072" stroke="black" points="3262.08,-252 3155.92,-252 3155.92,-216 3262.08,-216 3262.08,-252"/>
<text text-anchor="middle" x="3209" y="-229.8" font-family="Times,serif" font-size="14.00">PasskeyService </text>
</g>
<!-- AuthModule&#45;&gt;PasskeyService  -->
<g id="edge14" class="edge">
<title>AuthModule&#45;&gt;PasskeyService </title>
<path fill="none" stroke="black" stroke-dasharray="5,2" d="M273.55,-156C640.95,-156 3209,-156 3209,-156 3209,-156 3209,-205.91 3209,-205.91"/>
<polygon fill="black" stroke="black" points="3205.5,-205.91 3209,-215.91 3212.5,-205.91 3205.5,-205.91"/>
</g>
<!-- TwoFactorService  -->
<g id="node16" class="node">
<title>TwoFactorService </title>
<polygon fill="#fb8072" stroke="black" points="3137.4,-252 3014.6,-252 3014.6,-216 3137.4,-216 3137.4,-252"/>
<text text-anchor="middle" x="3076" y="-229.8" font-family="Times,serif" font-size="14.00">TwoFactorService </text>
</g>
<!-- AuthModule&#45;&gt;TwoFactorService  -->
<g id="edge15" class="edge">
<title>AuthModule&#45;&gt;TwoFactorService </title>
<path fill="none" stroke="black" stroke-dasharray="5,2" d="M273.57,-158C631.63,-158 3076,-158 3076,-158 3076,-158 3076,-205.99 3076,-205.99"/>
<polygon fill="black" stroke="black" points="3072.5,-205.99 3076,-215.99 3079.5,-205.99 3072.5,-205.99"/>
</g>
<!-- UsernameService  -->
<g id="node17" class="node">
<title>UsernameService </title>
<polygon fill="#fb8072" stroke="black" points="2996.22,-252 2877.78,-252 2877.78,-216 2996.22,-216 2996.22,-252"/>
<text text-anchor="middle" x="2937" y="-229.8" font-family="Times,serif" font-size="14.00">UsernameService </text>
</g>
<!-- AuthModule&#45;&gt;UsernameService  -->
<g id="edge16" class="edge">
<title>AuthModule&#45;&gt;UsernameService </title>
<path fill="none" stroke="black" stroke-dasharray="5,2" d="M273.62,-159C621.8,-159 2937,-159 2937,-159 2937,-159 2937,-205.84 2937,-205.84"/>
<polygon fill="black" stroke="black" points="2933.5,-205.84 2937,-215.84 2940.5,-205.84 2933.5,-205.84"/>
</g>
<!-- UsersService  -->
<g id="node18" class="node">
<title>UsersService </title>
<polygon fill="#fb8072" stroke="black" points="2859.85,-252 2766.15,-252 2766.15,-216 2859.85,-216 2859.85,-252"/>
<text text-anchor="middle" x="2813" y="-229.8" font-family="Times,serif" font-size="14.00">UsersService </text>
</g>
<!-- AuthModule&#45;&gt;UsersService  -->
<g id="edge17" class="edge">
<title>AuthModule&#45;&gt;UsersService </title>
<path fill="none" stroke="black" stroke-dasharray="5,2" d="M273.75,-161C613.18,-161 2813,-161 2813,-161 2813,-161 2813,-205.96 2813,-205.96"/>
<polygon fill="black" stroke="black" points="2809.5,-205.96 2813,-215.96 2816.5,-205.96 2809.5,-205.96"/>
</g>
<!-- ConfigModule -->
<g id="node2" class="node">
<title>ConfigModule</title>
<polygon fill="#8dd3c7" stroke="black" points="168.44,-187 165.44,-191 144.44,-191 141.44,-187 69.56,-187 69.56,-151 168.44,-151 168.44,-187"/>
<text text-anchor="middle" x="119" y="-164.8" font-family="Times,serif" font-size="14.00">ConfigModule</text>
</g>
<!-- DatabaseModule -->
<g id="node3" class="node">
<title>DatabaseModule</title>
<polygon fill="#8dd3c7" stroke="black" points="272.35,-252 269.35,-256 248.35,-256 245.35,-252 161.65,-252 161.65,-216 272.35,-216 272.35,-252"/>
<text text-anchor="middle" x="217" y="-229.8" font-family="Times,serif" font-size="14.00">DatabaseModule</text>
</g>
<!-- ConfigModule&#45;&gt;DatabaseModule -->
<g id="edge29" class="edge">
<title>ConfigModule&#45;&gt;DatabaseModule</title>
<path fill="none" stroke="black" d="M168.31,-169C171.94,-169 174.22,-169 174.22,-169 174.22,-169 174.22,-205.89 174.22,-205.89"/>
<polygon fill="black" stroke="black" points="170.72,-205.89 174.22,-215.89 177.72,-205.89 170.72,-205.89"/>
</g>
<!-- ConfigModule&#45;&gt;AppModule -->
<g id="edge2" class="edge">
<title>ConfigModule&#45;&gt;AppModule</title>
<path fill="none" stroke="black" d="M93.9,-187.14C93.9,-187.14 93.9,-281.93 93.9,-281.93"/>
<polygon fill="black" stroke="black" points="90.4,-281.92 93.9,-291.93 97.4,-281.93 90.4,-281.92"/>
</g>
<!-- DatabaseModule&#45;&gt;AppModule -->
<g id="edge3" class="edge">
<title>DatabaseModule&#45;&gt;AppModule</title>
<path fill="none" stroke="black" d="M161.37,-234C151.4,-234 144.1,-234 144.1,-234 144.1,-234 144.1,-281.99 144.1,-281.99"/>
<polygon fill="black" stroke="black" points="140.6,-281.99 144.1,-291.99 147.6,-281.99 140.6,-281.99"/>
</g>
<!-- DatabaseService  -->
<g id="node29" class="node">
<title>DatabaseService </title>
<polygon fill="#fb8072" stroke="black" points="600.28,-328 487.72,-328 487.72,-292 600.28,-292 600.28,-328"/>
<text text-anchor="middle" x="544" y="-305.8" font-family="Times,serif" font-size="14.00">DatabaseService </text>
</g>
<!-- DatabaseModule&#45;&gt;DatabaseService  -->
<g id="edge30" class="edge">
<title>DatabaseModule&#45;&gt;DatabaseService </title>
<path fill="none" stroke="black" stroke-dasharray="5,2" d="M198.52,-252.11C198.52,-261.9 198.52,-272 198.52,-272 198.52,-272 544,-272 544,-272 544,-272 544,-281.89 544,-281.89"/>
<polygon fill="black" stroke="black" points="540.5,-281.89 544,-291.89 547.5,-281.89 540.5,-281.89"/>
</g>
<!-- AppService -->
<g id="node5" class="node">
<title>AppService</title>
<ellipse fill="#fdb462" stroke="black" cx="81" cy="-104" rx="56.74" ry="18"/>
<text text-anchor="middle" x="81" y="-99.8" font-family="Times,serif" font-size="14.00">AppService</text>
</g>
<!-- AppService&#45;&gt;AppModule -->
<g id="edge4" class="edge">
<title>AppService&#45;&gt;AppModule</title>
<path fill="none" stroke="black" d="M47.08,-118.49C47.08,-165.38 47.08,-310 47.08,-310 47.08,-310 67.16,-310 67.16,-310"/>
<polygon fill="black" stroke="black" points="67.16,-313.5 77.16,-310 67.16,-306.5 67.16,-313.5"/>
</g>
<!-- AuthService -->
<g id="node6" class="node">
<title>AuthService</title>
<ellipse fill="#fdb462" stroke="black" cx="215" cy="-104" rx="59.11" ry="18"/>
<text text-anchor="middle" x="215" y="-99.8" font-family="Times,serif" font-size="14.00">AuthService</text>
</g>
<!-- AuthService&#45;&gt;AuthModule -->
<g id="edge20" class="edge">
<title>AuthService&#45;&gt;AuthModule</title>
<path fill="none" stroke="black" d="M230,-121.42C230,-121.42 230,-140.62 230,-140.62"/>
<polygon fill="black" stroke="black" points="226.5,-140.62 230,-150.62 233.5,-140.62 226.5,-140.62"/>
</g>
<!-- AuthService&#45;&gt;AppModule -->
<g id="edge5" class="edge">
<title>AuthService&#45;&gt;AppModule</title>
<path fill="none" stroke="black" d="M180.22,-118.94C180.22,-145.23 180.22,-197 180.22,-197 180.22,-197 110.63,-197 110.63,-197 110.63,-197 110.63,-281.84 110.63,-281.84"/>
<polygon fill="black" stroke="black" points="107.13,-281.84 110.63,-291.84 114.13,-281.84 107.13,-281.84"/>
</g>
<!-- AdminService -->
<g id="node19" class="node">
<title>AdminService</title>
<ellipse fill="#fdb462" stroke="black" cx="1232" cy="-234" rx="66.63" ry="18"/>
<text text-anchor="middle" x="1232" y="-229.8" font-family="Times,serif" font-size="14.00">AdminService</text>
</g>
<!-- AdminService&#45;&gt;AuthModule -->
<g id="edge18" class="edge">
<title>AdminService&#45;&gt;AuthModule</title>
<path fill="none" stroke="black" d="M1232,-215.97C1232,-199.6 1232,-178 1232,-178 1232,-178 283.7,-178 283.7,-178"/>
<polygon fill="black" stroke="black" points="283.7,-174.5 273.7,-178 283.7,-181.5 283.7,-174.5"/>
</g>
<!-- ApiKeyService -->
<g id="node20" class="node">
<title>ApiKeyService</title>
<ellipse fill="#fdb462" stroke="black" cx="1077" cy="-234" rx="70.62" ry="18"/>
<text text-anchor="middle" x="1077" y="-229.8" font-family="Times,serif" font-size="14.00">ApiKeyService</text>
</g>
<!-- ApiKeyService&#45;&gt;AuthModule -->
<g id="edge19" class="edge">
<title>ApiKeyService&#45;&gt;AuthModule</title>
<path fill="none" stroke="black" d="M1077,-215.72C1077,-200.05 1077,-180 1077,-180 1077,-180 283.75,-180 283.75,-180"/>
<polygon fill="black" stroke="black" points="283.75,-176.5 273.75,-180 283.75,-183.5 283.75,-176.5"/>
</g>
<!-- EmailOtpService -->
<g id="node21" class="node">
<title>EmailOtpService</title>
<ellipse fill="#fdb462" stroke="black" cx="911" cy="-234" rx="77.58" ry="18"/>
<text text-anchor="middle" x="911" y="-229.8" font-family="Times,serif" font-size="14.00">EmailOtpService</text>
</g>
<!-- EmailOtpService&#45;&gt;AuthModule -->
<g id="edge21" class="edge">
<title>EmailOtpService&#45;&gt;AuthModule</title>
<path fill="none" stroke="black" d="M911,-215.76C911,-200.43 911,-181 911,-181 911,-181 283.64,-181 283.64,-181"/>
<polygon fill="black" stroke="black" points="283.64,-177.5 273.64,-181 283.64,-184.5 283.64,-177.5"/>
</g>
<!-- MagicLinkService -->
<g id="node22" class="node">
<title>MagicLinkService</title>
<ellipse fill="#fdb462" stroke="black" cx="733" cy="-234" rx="82.8" ry="18"/>
<text text-anchor="middle" x="733" y="-229.8" font-family="Times,serif" font-size="14.00">MagicLinkService</text>
</g>
<!-- MagicLinkService&#45;&gt;AuthModule -->
<g id="edge22" class="edge">
<title>MagicLinkService&#45;&gt;AuthModule</title>
<path fill="none" stroke="black" d="M733,-215.88C733,-201.22 733,-183 733,-183 733,-183 283.76,-183 283.76,-183"/>
<polygon fill="black" stroke="black" points="283.76,-179.5 273.76,-183 283.76,-186.5 283.76,-179.5"/>
</g>
<!-- MultiSessionService -->
<g id="node23" class="node">
<title>MultiSessionService</title>
<ellipse fill="#fdb462" stroke="black" cx="541" cy="-234" rx="90.92" ry="18"/>
<text text-anchor="middle" x="541" y="-229.8" font-family="Times,serif" font-size="14.00">MultiSessionService</text>
</g>
<!-- MultiSessionService&#45;&gt;AuthModule -->
<g id="edge23" class="edge">
<title>MultiSessionService&#45;&gt;AuthModule</title>
<path fill="none" stroke="black" d="M541,-215.95C541,-201.63 541,-184 541,-184 541,-184 283.57,-184 283.57,-184"/>
<polygon fill="black" stroke="black" points="283.57,-180.5 273.57,-184 283.57,-187.5 283.57,-180.5"/>
</g>
<!-- OrgsService -->
<g id="node24" class="node">
<title>OrgsService</title>
<ellipse fill="#fdb462" stroke="black" cx="373" cy="-234" rx="58.53" ry="18"/>
<text text-anchor="middle" x="373" y="-229.8" font-family="Times,serif" font-size="14.00">OrgsService</text>
</g>
<!-- OrgsService&#45;&gt;AuthModule -->
<g id="edge24" class="edge">
<title>OrgsService&#45;&gt;AuthModule</title>
<path fill="none" stroke="black" d="M373,-215.85C373,-202.26 373,-186 373,-186 373,-186 283.68,-186 283.68,-186"/>
<polygon fill="black" stroke="black" points="283.68,-182.5 273.68,-186 283.68,-189.5 283.68,-182.5"/>
</g>
<!-- PasskeyService -->
<g id="node25" class="node">
<title>PasskeyService</title>
<ellipse fill="#fdb462" stroke="black" cx="1888" cy="-234" rx="71.2" ry="18"/>
<text text-anchor="middle" x="1888" y="-229.8" font-family="Times,serif" font-size="14.00">PasskeyService</text>
</g>
<!-- PasskeyService&#45;&gt;AuthModule -->
<g id="edge25" class="edge">
<title>PasskeyService&#45;&gt;AuthModule</title>
<path fill="none" stroke="black" d="M1888,-215.73C1888,-197.44 1888,-172 1888,-172 1888,-172 283.92,-172 283.92,-172"/>
<polygon fill="black" stroke="black" points="283.92,-168.5 273.92,-172 283.92,-175.5 283.92,-168.5"/>
</g>
<!-- TwoFactorService -->
<g id="node26" class="node">
<title>TwoFactorService</title>
<ellipse fill="#fdb462" stroke="black" cx="1717" cy="-234" rx="82.22" ry="18"/>
<text text-anchor="middle" x="1717" y="-229.8" font-family="Times,serif" font-size="14.00">TwoFactorService</text>
</g>
<!-- TwoFactorService&#45;&gt;AuthModule -->
<g id="edge26" class="edge">
<title>TwoFactorService&#45;&gt;AuthModule</title>
<path fill="none" stroke="black" d="M1717,-215.7C1717,-197.73 1717,-173 1717,-173 1717,-173 283.7,-173 283.7,-173"/>
<polygon fill="black" stroke="black" points="283.7,-169.5 273.7,-173 283.7,-176.5 283.7,-169.5"/>
</g>
<!-- UsernameService -->
<g id="node27" class="node">
<title>UsernameService</title>
<ellipse fill="#fdb462" stroke="black" cx="1538" cy="-234" rx="79.27" ry="18"/>
<text text-anchor="middle" x="1538" y="-229.8" font-family="Times,serif" font-size="14.00">UsernameService</text>
</g>
<!-- UsernameService&#45;&gt;AuthModule -->
<g id="edge27" class="edge">
<title>UsernameService&#45;&gt;AuthModule</title>
<path fill="none" stroke="black" d="M1538,-215.98C1538,-198.63 1538,-175 1538,-175 1538,-175 283.89,-175 283.89,-175"/>
<polygon fill="black" stroke="black" points="283.89,-171.5 273.89,-175 283.89,-178.5 283.89,-171.5"/>
</g>
<!-- UsersService -->
<g id="node28" class="node">
<title>UsersService</title>
<ellipse fill="#fdb462" stroke="black" cx="1379" cy="-234" rx="61.95" ry="18"/>
<text text-anchor="middle" x="1379" y="-229.8" font-family="Times,serif" font-size="14.00">UsersService</text>
</g>
<!-- UsersService&#45;&gt;AuthModule -->
<g id="edge28" class="edge">
<title>UsersService&#45;&gt;AuthModule</title>
<path fill="none" stroke="black" d="M1379,-215.96C1379,-199.27 1379,-177 1379,-177 1379,-177 283.64,-177 283.64,-177"/>
<polygon fill="black" stroke="black" points="283.64,-173.5 273.64,-177 283.64,-180.5 283.64,-173.5"/>
</g>
<!-- DatabaseService -->
<g id="node30" class="node">
<title>DatabaseService</title>
<ellipse fill="#fdb462" stroke="black" cx="389" cy="-310" rx="75.26" ry="18"/>
<text text-anchor="middle" x="389" y="-305.8" font-family="Times,serif" font-size="14.00">DatabaseService</text>
</g>
<!-- DatabaseService&#45;&gt;DatabaseModule -->
<g id="edge31" class="edge">
<title>DatabaseService&#45;&gt;DatabaseModule</title>
<path fill="none" stroke="black" d="M313.59,-310C274.76,-310 235.47,-310 235.47,-310 235.47,-310 235.47,-262.01 235.47,-262.01"/>
<polygon fill="black" stroke="black" points="238.98,-262.01 235.47,-252.01 231.98,-262.01 238.98,-262.01"/>
</g>
</g>
</svg>
